<svg xmlns="http://www.w3.org/2000/svg" width="88" height="32" fill="none"><g fill="#191919" clip-path="url(#a)"><path d="M50.298 11.629H42a88.2 88.2 0 0 1 .014 19.608h8.304a97.7 97.7 0 0 1-.02-19.608m37.416 8.356c-.228-2.451-1.111-4.633-3.013-6.308-3.426-3.014-9.952-3.24-13.635-.45-2.733 2.07-3.488 5.005-3.57 8.192.07 3.232.798 6.15 3.488 8.22 1.616 1.244 3.506 1.772 5.503 1.914 3.21.228 6.227-.31 8.607-2.684 2.47-2.466 2.923-5.593 2.62-8.884m-10.015 9.801h-.01a1 1 0 0 1-.108 0 1.1 1.1 0 0 1-.487-.196 1.3 1.3 0 0 1-.34-.298c-1.06-1.165-1.819-4.235-1.819-7.839s.763-6.695 1.83-7.851q.101-.116.223-.209c.181-.162.408-.263.65-.29h.06c1.529 0 2.766 3.734 2.766 8.34s-1.237 8.343-2.765 8.343m-37.356-9.754c-.333-2.844-1.35-5.325-3.816-7.002-1.867-1.27-3.977-1.704-6.203-1.742-5.027-.08-8.618 2.603-9.789 7.361-.296 1.207-.214 1.388.921 2.015 1.636-2.925 4.706-3.117 7.361-2.27 2.182.699 3.812 2.304 3.771 3.372-.786-.463-1.616-1.1-2.564-1.48-1.648-.662-3.392-.61-5.122-.296-2.97.54-4.924 2.624-4.963 5.281-.054 3.706 1.436 5.688 4.801 6.385.61.125 1.226.231 1.84.344h2.155c1.47-.292 2.934-.598 3.936-2.154v1.36h8.226c-.18-3.59-.34-7.116-.51-10.64-.016-.175-.023-.356-.044-.534M31.6 29.41a1.31 1.31 0 0 1-1.368 1.142h-.165c-1.242 0-2.248-1.902-2.248-4.249 0-2.296.964-4.167 2.17-4.244h.03c.766-.063 1.257.382 1.537 1.014q.044.1.087.205c.465.942.696 1.981.674 3.03-.01 1.222-.284 2.326-.716 3.102Z"/><path d="M68.267 11.787c-1.315-1.404-4.321-1.537-5.698-.027-.923 1.01-1.575 2.295-2.198 3.534-.467.924-.693 1.975-1.027 2.962l-.169-.034c.088-1.377.18-2.752.268-4.138.091-1.276.34-2.536.738-3.751.538-1.7.853-4.871-2.386-8.297C55.8-.072 49.284-.542 46.205.621c-3.95 1.503-4.365 5.171-4.365 5.171s0 .061.01.167-.01.18-.01.268a4.16 4.16 0 0 0 1.59 3.253c.69.604 1.572.945 2.49.96h.249a4.4 4.4 0 0 0 1.715-.342c1.235-.392 2.693-1.218 2.693-2.938 0-2.998 3.609-2.284 3.609-.504 0 1.257-.381 1.975-.602 2.28a6 6 0 0 0-.314.474 8.6 8.6 0 0 1-1.93 2.208 92 92 0 0 1 .01 19.602h8.2c-.125-2.873-.204-5.672-.389-8.473-.099-1.483.44-2.684 1.296-3.798.62-.802 1.436-1.274 2.483-1.16 1.146.126 2.286.311 3.448.473a1 1 0 0 0 .075-.112c.69-1.616 1.341-3.257 2.083-4.847.29-.64.154-1.056-.279-1.516M8.618 10.495c.015-.682-.028-1.659 1.078-1.634 1.05.024 1.009.963 1.093 1.665.18 1.533.289 3.075.425 4.605h7.861c-.079-.828-.124-1.594-.23-2.352-.413-2.993-2.201-4.943-5.18-5.354a28 28 0 0 0-5.09-.226v-.022A8.57 8.57 0 0 0 0 15.738v7.282a8.57 8.57 0 0 0 6.597 8.34v.022q.23.04.463.074.446.08.898.11c2.106.215 4.232.124 6.312-.268 3.232-.6 5.006-3.579 4.63-7.57h-7.72c-.023.337-.034.632-.064.923-.153 1.454-.252 2.92-.503 4.356-.066.378-.551.865-.934.967-.628.17-.867-.42-.928-.948-.054-.456-.115-.912-.169-1.37V12.912q.013-1.206.036-2.417"/></g><defs><clipPath id="a"><path fill="#fff" d="M0 0h87.822v32H0z"/></clipPath></defs></svg>