<svg xmlns="http://www.w3.org/2000/svg" width="12" height="14" fill="none"><mask id="a" width="10" height="14" x="1" y="0" maskUnits="userSpaceOnUse" style="mask-type:luminance"><path fill="#fff" d="M11 0H1v14h10z"/></mask><g mask="url(#a)"><path fill="#fff" d="M4.61 1.893v10.214A1.393 1.393 0 0 1 3.216 13.5h-.465a1.393 1.393 0 0 1-1.393-1.393V1.893A1.393 1.393 0 0 1 2.752.5h.465a1.393 1.393 0 0 1 1.392 1.393ZM9.251.5h-.464a1.393 1.393 0 0 0-1.393 1.393v10.214A1.393 1.393 0 0 0 8.788 13.5h.464a1.39 1.39 0 0 0 1.393-1.393V1.893A1.393 1.393 0 0 0 9.252.5Z"/></g></svg>