<svg xmlns="http://www.w3.org/2000/svg" width="104" height="26" fill="none"><g clip-path="url(#a)"><path fill="#191919" d="M3.504 12.362v12.971H0v-10.17z" opacity=".4"/><path fill="#191919" d="M3.504 12.362v12.971h3.504v-10.8z"/><path fill="#191919" d="M10.409 7.064v18.269H5.737V10.931z" opacity=".5"/><path fill="#191919" d="M10.41 7.064v18.269h4.672V9.958z"/><path fill="#191919" d="M19.04 0v25.333h-6.295V5.785z" opacity=".6"/><path fill="#191919" d="M19.04 0v25.333h6.293V5.785z"/><mask id="b" width="72" height="26" x="32" y="0" maskUnits="userSpaceOnUse" style="mask-type:luminance"><path fill="#fff" d="M103.866 0H32.933v25.333h70.933z"/></mask><g mask="url(#b)"><path fill="#191919" d="M33.144 18.57V7.333h1.686v11.235h-1.686Zm5.938 0h-1.621V9.862h1.46v.908l.907-.908h3.227l.697.713.697-.713h3.697l1.135 1.119v7.587h-1.622v-7.182h-3.437v7.182h-1.621v-7.182h-2.74l-.779.697v6.485Zm14.219 3.29h-1.622V9.864h1.46v.908l.907-.908h3.324l1.135 1.119v6.452L57.37 18.57H53.3v3.292Zm3.583-10.473h-2.805l-.778.697v4.994h3.583zm5.632 7.182h-1.622V9.863h1.46v1.102l1.118-1.102h2.01v1.556H63.44l-.924.876zM68.47 8.29h-1.686V6.766h1.686zm-.032 10.28h-1.621V9.862h1.62v8.706Zm4.053 0h-1.622V9.862h1.46v.908l.908-.908h3.47l1.134 1.119v7.587h-1.637v-7.182h-2.935l-.778.697v6.485Zm12.08 0H81.67l-1.135-1.136v-6.226h-1.2V9.864h1.2V8.096h1.62v1.767h2.238v1.346h-2.237v5.836h2.416v1.524Zm3.296-10.28H86.18V6.766h1.686zm-.033 10.28h-1.621V9.862h1.621v8.706Zm4.782 0h-1.621v-7.361h-1.41V9.863h1.41V7.739L92.13 6.62h2.691v1.346h-2.205v1.897h2.043v1.346h-2.043v7.36Zm3.558.55h1.572v1.33h3.649V18.1h-4.216l-1.119-1.12V9.863h1.622v6.81h3.713v-6.81h1.621v10.879l-1.151 1.119h-4.54l-1.151-1.12z"/></g></g><defs><clipPath id="a"><path fill="#fff" d="M0 0h103.867v25.333H0z"/></clipPath></defs></svg>