<svg xmlns="http://www.w3.org/2000/svg" width="91" height="40" fill="none"><g fill="#191919" clip-path="url(#a)"><path d="M61.956 14.197v-2.582l-6.777-2.997 6.777-2.858V3.2l-9.451 4.426v2.075zM4.564 27.513q.783 1.36 2.996 1.36t2.974-1.337q.784-1.337.784-4.472 0-3.157-.807-4.587-.784-1.43-2.95-1.43t-2.974 1.43q-.807 1.43-.807 4.564 0 3.111.784 4.472m7.976 1.66q-1.407 1.935-4.98 1.936t-5.002-1.937q-1.428-1.96-1.429-6.131 0-4.173 1.43-6.2 1.451-2.03 5.001-2.03t4.98 2.03q1.428 2.004 1.429 6.2c.001 4.196-.477 4.84-1.43 6.131Zm5.523 1.682h-2.512V19.33h2.49v.715q1.681-.968 3.18-.968 2.306 0 3.135 1.314.853 1.29.853 4.287v6.178h-2.49v-6.108q0-1.868-.414-2.651-.392-.784-1.637-.784-1.176 0-2.259.461l-.346.138v8.944Zm9.734 1.867h9.866v2.144h-9.866zm12.848-1.867v-15.79h9.959v2.236h-7.4v4.472h6.017v2.213h-6.017v4.61h7.4v2.26h-9.959ZM50.793 19.33h2.628l2.213 9.382h.738l2.305-9.381h2.559l-2.997 11.525h-4.472zm19.335 9.451.646-.069.046 1.867q-2.628.53-4.656.53-2.56 0-3.689-1.405-1.106-1.407-1.106-4.495 0-6.132 5.002-6.132 4.84 0 4.84 5.279l-.16 1.798h-7.147q.024 1.43.623 2.097.6.669 2.236.669t3.365-.139m-1.383-4.564q0-1.705-.553-2.374-.53-.69-1.82-.691-1.293 0-1.891.714-.577.715-.6 2.351zm6.298 6.64H72.53V19.328h2.49v.715q1.682-.968 3.18-.968 2.306 0 3.135 1.314.854 1.29.854 4.287v6.178h-2.49v-6.108q0-1.868-.415-2.651-.392-.784-1.636-.784-1.176 0-2.26.461l-.345.138v8.944Zm15.174-9.383h-3.181v5.072q0 1.406.207 1.867.208.46 1.06.46l1.89-.068.116 2.005q-1.544.3-2.351.3-1.959 0-2.697-.9-.715-.898-.715-3.388v-5.348h-1.475V19.33h1.475v-3.343h2.49v3.342h3.18v2.144Zm-23.996-4.439L72.814.807 70.6 0l-6.57 16.251 2.19.784Zm8.055-2.838 9.45-4.495V7.627l-9.45-4.426V5.76l6.777 2.858-6.777 2.997z"/></g><defs><clipPath id="a"><path fill="#fff" d="M0 0h90.989v40H0z"/></clipPath></defs></svg>