<svg xmlns="http://www.w3.org/2000/svg" width="94" height="120" fill="none"><g clip-path="url(#a)"><path fill="url(#b)" d="M62.286 53.398 41.67 61.65l22.574 56.364 7.412-11.357 13.175 3.105z"/><path fill="url(#c)" fill-rule="evenodd" d="m84.831 109.762-13.175-3.105-7.412 11.357L41.67 61.65l20.616-8.252zM41.978 61.818l22.294 55.664 7.16-10.937.084-.14.168.028 12.728 2.993-22.294-55.692z" clip-rule="evenodd" style="mix-blend-mode:screen"/><path fill="url(#d)" d="m32.495 55.217 20.616 8.252-22.573 56.363-7.413-11.356L9.95 111.58z"/><path fill="url(#e)" fill-rule="evenodd" d="m53.11 63.468-22.572 56.364-7.413-11.356L9.95 111.58l22.545-56.363 20.616 8.252Zm-42.74 47.749 12.727-2.965.168-.056.084.14 7.16 10.965 22.294-55.693-20.14-8.055z" clip-rule="evenodd" style="mix-blend-mode:screen"/><path fill="url(#f)" d="M93.335 46.377c0 25.483-20.644 46.126-46.126 46.126-25.483 0-46.154-20.643-46.154-46.126S21.726.224 47.209.224c25.482 0 46.126 20.671 46.126 46.154Z"/><path fill="url(#g)" d="M2.146 46.378c0-24.895 20.168-45.09 45.063-45.09s45.063 20.195 45.063 45.09-20.168 45.063-45.063 45.063S2.146 71.273 2.146 46.378"/><path fill="#1E2F53" d="M91.293 46.377c0 24.336-19.72 44.084-44.084 44.084S3.097 70.713 3.097 46.377c0-24.363 19.748-44.111 44.112-44.111 24.363 0 44.084 19.748 44.084 44.111"/><path fill="url(#h)" d="M45.363 88.084c-.28 0-.476-.252-.476-.504.028-.28.252-.503.504-.475.28 0 .503.224.475.503 0 .28-.224.476-.475.476zm6.909-.755c-.028-.28.168-.532.42-.56.279-.028.53.168.559.42.028.28-.14.531-.42.56h-.056c-.252 0-.475-.169-.503-.42m-14.322-.224c-.28-.084-.448-.336-.392-.588.084-.28.336-.447.588-.391a.5.5 0 0 1 .391.587.51.51 0 0 1-.503.392zm21.566-1.343a.49.49 0 0 1 .308-.615.49.49 0 0 1 .616.307c.083.252-.056.56-.308.644h-.14c-.224 0-.42-.112-.476-.336m-28.699-.979a.48.48 0 0 1-.252-.643.48.48 0 0 1 .644-.252c.252.084.363.392.252.643a.48.48 0 0 1-.448.308.35.35 0 0 1-.196-.056m35.525-1.846a.477.477 0 0 1 .195-.671.527.527 0 0 1 .672.195c.112.252.028.56-.196.672-.084.056-.168.056-.252.056a.46.46 0 0 1-.42-.252Zm-42.126-1.706q.027 0 0 0a.49.49 0 0 1-.14-.672.53.53 0 0 1 .7-.14.49.49 0 0 1 .139.672c-.112.14-.252.224-.42.224a.54.54 0 0 1-.28-.084Zm48.335-2.294c-.167-.224-.14-.531.084-.7.224-.167.532-.14.7.085.168.195.14.503-.084.699a.6.6 0 0 1-.308.112c-.14 0-.28-.084-.392-.196m-54.181-2.35a.49.49 0 0 1 0-.699c.167-.224.503-.224.699-.028.168.196.196.504 0 .7-.084.111-.224.14-.364.14a.54.54 0 0 1-.335-.113m59.58-2.713c-.196-.168-.224-.475-.028-.7.168-.195.476-.223.7-.027.195.168.223.475.027.7a.45.45 0 0 1-.363.167c-.112 0-.224-.056-.336-.14m-64.504-2.937a.46.46 0 0 1 .112-.671c.224-.168.532-.112.672.084a.497.497 0 0 1-.112.699.3.3 0 0 1-.28.084c-.14 0-.308-.056-.391-.196Zm68.924-2.993a.5.5 0 0 1-.168-.671.525.525 0 0 1 .699-.168c.224.14.308.447.168.671a.54.54 0 0 1-.448.252.5.5 0 0 1-.251-.084M9.586 64.531a.54.54 0 0 1 .224-.67c.252-.113.56 0 .671.223.112.252.028.56-.223.671a.5.5 0 0 1-.224.056.5.5 0 0 1-.448-.28m76.084-3.216a.455.455 0 0 1-.28-.616c.085-.252.392-.391.644-.307a.52.52 0 0 1 .28.643c-.084.196-.252.336-.476.336a.3.3 0 0 1-.168-.056M6.957 57.51a.465.465 0 0 1 .336-.588c.28-.084.531.084.615.336a.53.53 0 0 1-.336.615h-.14a.48.48 0 0 1-.475-.364Zm80.783-3.3a.48.48 0 0 1-.42-.56.49.49 0 0 1 .588-.391c.252.028.448.307.392.56-.056.25-.252.419-.476.419a.12.12 0 0 1-.084-.028M5.614 50.154a.48.48 0 0 1 .448-.532.48.48 0 0 1 .531.448.48.48 0 0 1-.447.531h-.028a.51.51 0 0 1-.504-.447m82.35-3.776v-.112c0-.252.224-.476.504-.476s.503.224.503.476v.112c0 .251-.224.475-.504.475s-.503-.224-.503-.475M6.062 43.217a.495.495 0 0 1-.448-.532.48.48 0 0 1 .532-.447c.28 0 .475.252.447.531a.49.49 0 0 1-.503.448zm81.259-4.224c-.056-.252.112-.532.391-.56.252-.055.504.112.56.392.056.252-.112.532-.392.56a.2.2 0 0 1-.084.028.48.48 0 0 1-.475-.42M7.265 35.916c-.252-.084-.42-.336-.336-.615.084-.252.336-.42.615-.336.252.084.42.336.336.615a.48.48 0 0 1-.475.364.5.5 0 0 1-.14-.028m78.098-3.944a.475.475 0 0 1 .28-.643c.251-.112.53.028.643.28.084.251-.056.53-.308.643a.5.5 0 0 1-.168.028c-.196 0-.392-.112-.447-.308m-75.58-3.021c-.253-.112-.364-.42-.225-.643.112-.252.42-.364.644-.252.252.14.363.42.252.671-.112.168-.28.28-.448.28a.5.5 0 0 1-.224-.056Zm72.39-3.552c-.14-.252-.083-.56.169-.7a.5.5 0 0 1 .67.168c.14.252.057.56-.167.7a.56.56 0 0 1-.252.055.5.5 0 0 1-.42-.223m-68.67-2.854a.46.46 0 0 1-.112-.67.497.497 0 0 1 .699-.113.52.52 0 0 1 .084.7.49.49 0 0 1-.392.195.4.4 0 0 1-.28-.112Zm64.363-3.049c-.196-.223-.168-.531.028-.699a.49.49 0 0 1 .7.028c.195.224.167.532-.057.7a.45.45 0 0 1-.307.14.45.45 0 0 1-.364-.168Zm-59.58-2.573a.517.517 0 0 1 .028-.7c.195-.195.503-.167.699.029s.168.503-.028.699c-.084.084-.224.112-.336.112a.46.46 0 0 1-.363-.14m54.293-2.49a.463.463 0 0 1-.083-.67.463.463 0 0 1 .67-.085c.225.168.252.476.085.7-.084.111-.224.167-.392.167a.4.4 0 0 1-.28-.111Zm-48.56-2.21c-.167-.223-.083-.53.14-.67a.49.49 0 0 1 .672.14.49.49 0 0 1-.42.755.48.48 0 0 1-.391-.224Zm42.435-1.79c-.224-.14-.336-.447-.196-.67a.477.477 0 0 1 .671-.197c.252.112.336.42.196.644a.49.49 0 0 1-.671.224Zm-35.972-1.79c-.112-.251 0-.56.251-.643a.48.48 0 0 1 .644.252.48.48 0 0 1-.252.643q-.112.056-.196.028a.5.5 0 0 1-.447-.28m29.258-1.09c-.252-.084-.42-.364-.335-.616s.363-.392.643-.308a.488.488 0 0 1-.168.951.5.5 0 0 1-.14-.028ZM37.474 6.265a.49.49 0 0 1 .364-.588c.28-.084.532.084.587.364.084.252-.083.531-.363.587h-.112a.48.48 0 0 1-.476-.363m15.133-.308c-.28-.028-.447-.28-.42-.56.029-.28.28-.447.56-.419.252.028.448.28.42.56-.028.251-.252.419-.504.419zm-7.804-.783a.457.457 0 0 1 .448-.504c.28-.028.503.196.531.448a.52.52 0 0 1-.475.531h-.028a.49.49 0 0 1-.476-.475"/><path fill="url(#i)" d="M9.307 46.377c0-20.923 16.979-37.902 37.902-37.902s37.874 16.979 37.874 37.902-16.951 37.874-37.874 37.874S9.307 67.3 9.307 46.377"/><path fill="url(#j)" d="M84.328 46.378c0 20.503-16.616 37.119-37.12 37.119S10.09 66.881 10.09 46.377 26.705 9.259 47.209 9.259c20.503 0 37.119 16.615 37.119 37.119"/><path fill="url(#k)" d="M76.72 46.378c0 16.28-13.231 29.51-29.511 29.51-16.308 0-29.51-13.23-29.51-29.51 0-16.308 13.202-29.51 29.51-29.51 16.28 0 29.51 13.202 29.51 29.51Z"/><path fill="#1E2F53" d="M12.048 46.378c0-19.44 15.748-35.161 35.16-35.161 19.413 0 35.162 15.72 35.162 35.16 0 19.413-15.749 35.161-35.161 35.161-19.413 0-35.161-15.748-35.161-35.16"/><path fill="url(#l)" fill-rule="evenodd" d="M80.188 46.378c0 18.21-14.77 32.98-32.98 32.98S14.23 64.588 14.23 46.378s14.769-32.979 32.979-32.979 32.979 14.77 32.979 32.98Zm-.84 0c0-17.762-14.405-32.14-32.14-32.14-17.761 0-32.14 14.378-32.14 32.14 0 17.735 14.379 32.14 32.14 32.14 17.735 0 32.14-14.405 32.14-32.14" clip-rule="evenodd"/><path fill="url(#m)" d="m32.971 75.665 14.238-29.287-15.021 28.895zm3.525 1.455 10.713-30.742L35.656 76.84zm-6.826-3.301 17.539-27.44-18.266 26.965q.363.251.727.475m-3.049-2.21L47.21 46.38 25.95 71.021q.336.307.671.587Zm17.231 7.161 3.357-32.392-4.224 32.28c.28.028.587.084.867.112m-3.72-.615 7.077-31.777-7.944 31.58q.42.112.867.197m-22.657-18.49 29.734-13.287L17.11 58.854q.168.42.363.811Zm-1.343-3.524 31.077-9.763-31.329 8.895q.113.448.252.868m31.077 22.797h.447l-.447-32.56-.448 32.56zm-32-26.462 32-6.098-32.14 5.231q.056.42.14.867m6.126 13.679 25.874-19.777L20.83 65.455q.252.364.504.7Zm2.49 2.88 23.384-22.657-24 22.014q.308.309.615.644Zm-4.616-6.013 28-16.644-28.42 15.889q.195.39.42.755m49.259 8-21.26-24.644L67.797 71.61q.336-.28.671-.587Zm10.07-15.749-31.33-8.895 31.078 9.763q.14-.42.251-.867Zm-1.26 3.581-30.07-12.476 29.735 13.287q.168-.39.336-.811Zm-1.65 3.413-28.42-15.889 27.973 16.644q.224-.364.447-.755m3.72-10.658-32.14-5.23 32 6.097q.085-.447.14-.867m.336-2.909.056-.867-32.531-1.455zM51.433 78.658 47.209 46.35l3.328 32.42c.308-.028.588-.084.896-.112m22.153-13.203L47.21 46.35l25.846 19.805q.28-.336.531-.7ZM58.761 76.812 47.21 46.35l10.713 30.77q.42-.14.84-.308Zm3.44-1.538L47.21 46.35l14.21 29.315.783-.392Zm-7.076 2.685L47.209 46.35l7.077 31.805q.42-.084.839-.196m10.35-4.615L47.209 46.35l17.51 27.468q.365-.252.756-.475Zm5.734-4.952-24-22.041 23.384 22.657zM14.733 48.7l32.476-2.35-32.532 1.455q0 .447.056.895m.308-7.552 32.168 5.202-32-6.07q-.084.42-.168.868M64.719 18.91 47.21 46.35l18.266-26.965c-.252-.167-.504-.307-.756-.475Zm-3.3-1.846L47.209 46.35l14.993-28.895zm6.377 4.056L47.21 46.35l21.258-24.643a19 19 0 0 0-.67-.587Zm-13.51-6.546L47.209 46.35l7.916-31.58q-.42-.112-.84-.196Zm3.636 1.035L47.21 46.35l11.55-30.433q-.42-.168-.839-.308Zm-7.384-1.65-3.33 32.392 4.225-32.28c-.308-.028-.588-.084-.895-.112m20.055 9.734L47.21 46.35l24-22.014q-.307-.308-.616-.643Zm8.588 16.588-31.972 6.07 32.14-5.203a73 73 0 0 0-.168-.867m-.895-3.665L47.209 46.35l31.328-8.895zm-5.231-10.042L47.209 46.35l26.377-19.077a10 10 0 0 0-.531-.699m6.63 17.455L47.208 46.35l32.531-1.454-.056-.867Zm-2.742-10.965L47.21 46.35l30.07-12.475q-.168-.42-.336-.811Zm-1.762-3.357L47.209 46.35l28.42-15.888a33 33 0 0 0-.448-.755m-49.231-8L47.209 46.35 26.62 21.12a19 19 0 0 0-.671.587Zm21.259-7.916h-.448l.448 32.56.42-32.56zm-24 10.546 24 22.013-23.385-22.657q-.308.336-.615.643Zm-4.42 6.125L47.21 46.35l-28-16.643q-.225.363-.42.755Zm2.042-3.189L47.21 46.35 21.335 26.574q-.252.336-.504.7Zm-3.72 6.602L47.209 46.35 17.474 33.064q-.195.39-.363.81Zm-1.23 3.58 31.328 8.895-31.077-9.734q-.14.42-.252.84Zm-1.204 7.44L47.21 46.35l-32.477-2.32a7 7 0 0 0-.056.867Zm28.308-30.824 4.224 32.28-3.357-32.392c-.28.028-.587.084-.867.112m-3.72.699 7.944 31.58-7.077-31.776q-.447.084-.867.196m-10.322 4.615L47.21 46.35 29.67 18.91q-.363.225-.727.475m3.245-1.93 15.02 28.895-14.237-29.286zm3.468-1.538L47.21 46.35 36.467 15.61q-.39.139-.81.307Z" opacity=".2" style="mix-blend-mode:screen"/><path fill="url(#n)" fill-rule="evenodd" d="M20.244 40.364h2.88q2.799 0 2.798 3.693 0 1.482-.476 2.321-.503.84-1.258 1.063-.727.224-2.182.252v5.734h-1.762zm1.762 5.958q1.119 0 1.594-.447.476-.449.476-1.818 0-1.371-.42-1.875-.42-.475-1.65-.475z" clip-rule="evenodd"/><path fill="url(#o)" fill-rule="evenodd" d="M33.782 53.427h-1.846l-2.042-6.154h-.168v6.154h-1.762V40.364h2.462q2.965 0 2.965 3.329 0 1.51-.42 2.294-.447.754-1.454 1.146zM29.754 46.1q1.035-.03 1.483-.476.447-.476.447-1.706 0-1.175-.391-1.679-.42-.503-1.427-.503h-.112z" clip-rule="evenodd"/><path fill="url(#p)" fill-rule="evenodd" d="M35.405 46.853q0-4.251.839-5.51.84-1.26 2.741-1.259 2.21 0 2.937 1.399.7 1.398.7 5.063 0 3.245-.308 4.503-.336 1.26-1.12 1.846-.782.615-2.153.616-1.398 0-2.154-.56-.754-.532-1.119-1.762-.363-1.23-.363-4.336m5.37.112q0-3.72-.42-4.615-.447-.867-1.314-.867-1.035 0-1.399 1.035-.39 1.062-.391 3.552v.727q0 2.769.307 4.056.309 1.26 1.483 1.259.728 0 1.23-.7.504-.726.504-3.971z" clip-rule="evenodd"/><path fill="url(#q)" fill-rule="evenodd" d="M45.195 40.364h2.545q1.791 0 2.853 1.343 1.035 1.37 1.035 5.119 0 3.608-.923 5.119-.922 1.482-3.273 1.482h-2.237zm1.762 1.343v10.405q1.091 0 1.678-.42.588-.419.867-1.538.28-1.118.28-3.356 0-2.853-.531-3.972-.533-1.12-2.07-1.12h-.224Z" clip-rule="evenodd"/><path fill="url(#r)" d="M60.076 50.322q0 3.273-2.937 3.273-3.217 0-3.217-3.245v-9.986h1.762v9.259q0 1.482.252 2.042.251.588 1.119.587.867 0 1.063-.615.224-.587.224-2.126v-9.147h1.734z"/><path fill="url(#s)" d="M68.048 53.203a3.7 3.7 0 0 1-1.567.364q-1.593 0-2.74-1.203-1.148-1.23-1.148-5.119 0-4.195 1.147-5.65 1.147-1.483 2.797-1.483.615 0 1.51.224v1.595a3.1 3.1 0 0 0-1.118-.224q-1.007 0-1.734 1.035t-.727 4.112q0 1.818.14 2.853.167 1.035.727 1.65.587.615 1.454.615.504 0 1.259-.335z"/><path fill="url(#t)" d="M75.32 41.847h-2.013v11.58h-1.763v-11.58h-1.986v-1.483h5.763z"/><path fill="url(#u)" d="M38.817 32.336h1.65v1.09h-4.056l1.987-2.517q.42-.559.615-.923a1.5 1.5 0 0 0 .168-.671.67.67 0 0 0-.224-.532.73.73 0 0 0-.532-.223q-.39 0-.559.28-.168.28-.224.838h-1.286q0-1.035.615-1.622a2.2 2.2 0 0 1 1.539-.587q.867 0 1.398.503.56.504.56 1.287 0 .755-.644 1.678l-.335.504q-.225.307-.532.7z"/><path fill="url(#v)" fill-rule="evenodd" d="M44.3 27.525q1.035 0 1.65.812.615.783.615 2.098 0 1.538-.67 2.293-.7.755-1.595.755-1.008 0-1.65-.81-.645-.784-.644-2.099 0-1.37.615-2.21.645-.839 1.65-.839zm1.035 3.021q0-.867-.28-1.398-.28-.504-.755-.504-.504 0-.783.504-.309.532-.308 1.426 0 .812.307 1.315.28.476.756.476c.476 0 .578-.159.783-.476q.28-.503.28-1.343" clip-rule="evenodd"/><path fill="url(#w)" d="M48.915 27.608h1.874v5.819H49.53V28.67h-.839z"/><path fill="url(#x)" d="M53.81 27.608h4.615l-3.72 5.986-1.007-.643 2.63-4.28H53.81z"/><path fill="url(#y)" fill-rule="evenodd" d="M27.992 62.462q0-.84.56-1.398a1.88 1.88 0 0 1 1.342-.532q.84 0 1.37.532.56.56.56 1.398 0 .84-.531 1.399-.56.531-1.399.531-.81 0-1.343-.531-.558-.56-.559-1.399m1.93-1.175q-.475 0-.783.336-.28.336-.28.867 0 .504.308.84a.9.9 0 0 0 .727.335q.476 0 .783-.336.28-.334.28-.867 0-.531-.28-.839-.28-.335-.755-.335Z" clip-rule="evenodd"/><path fill="url(#z)" d="M33.11 60.559h2.127v.727h-1.315v.783h1.315v.755h-1.315v1.539h-.811v-3.804Z"/><path fill="url(#A)" d="M38.425 60.559h2.546v.81h-.867v2.994h-.811V61.37h-.867v-.811Z"/><path fill="url(#B)" d="M42.118 60.559h.811v1.454h1.343V60.56h.81v3.804h-.81v-1.51h-1.343v1.51h-.811V60.56Z"/><path fill="url(#C)" d="M46.481 60.559h2.126v.755h-1.314v.755h1.314v.755h-1.314v.784h1.314v.755h-2.126z"/><path fill="url(#D)" d="M51.768 60.559h.895l.7 1.174.727-1.174h.895l-1.203 2.014v1.79h-.811v-1.79z"/><path fill="url(#E)" d="M56.104 60.559h2.126v.755h-1.315v.755h1.315v.755h-1.315v.784h1.315v.755h-2.126z"/><path fill="url(#F)" fill-rule="evenodd" d="M60.831 60.559h.643l1.539 3.804h-.811l-.308-.755H60.44l-.308.755h-.811zm.308 1.23-.448 1.12h.923z" clip-rule="evenodd"/><path fill="url(#G)" fill-rule="evenodd" d="M64.188 60.559h1.23q.588 0 .924.307.307.308.307.812 0 .279-.14.615-.14.308-.559.475l1.063 1.595h-.951l-.98-1.483H65v1.483h-.811zm.811.67v.98h.168q.643 0 .643-.504a.45.45 0 0 0-.168-.363.8.8 0 0 0-.447-.112z" clip-rule="evenodd"/><path fill="url(#H)" d="M68.775 36.504H25.167V36h43.608z"/><path fill="url(#I)" d="M68.775 57.65H25.167v-.503h43.608z"/><path fill="url(#J)" d="m49.558 24.755-1.874-1.091-1.846 1.09.448-2.097-1.623-1.455 2.154-.196.867-1.986.867 1.986 2.154.196-1.622 1.455z"/><path fill="url(#K)" d="m54.65 24.307-1.26-.727-1.23.727.308-1.399-1.063-.95 1.426-.14.56-1.343.587 1.342 1.427.14-1.091.951z"/><path fill="url(#L)" d="m42.957 24.307-1.23-.727-1.231.727.307-1.399-1.09-.95 1.426-.14.587-1.343.56 1.342 1.454.14-1.09.951z"/><path fill="url(#M)" d="m49.307 68.225-1.875 1.09-1.874-1.09.476 2.098-1.622 1.454 2.153.196.867 1.986.868-1.986 2.154-.196-1.623-1.454z"/><path fill="url(#N)" d="m42.957 68.672-1.23.727-1.231-.727.307 1.398-1.09.952 1.426.14.587 1.314.56-1.315 1.454-.14-1.09-.95.307-1.4Z"/><path fill="url(#O)" d="m54.314 70.07.335-1.398-1.258.727-1.231-.727.308 1.398-1.063.952 1.426.14.56 1.314.587-1.315 1.427-.14-1.091-.95Z"/></g><defs><linearGradient id="b" x1="792.692" x2="-2375.27" y1="-8926.97" y2="-16937.1" gradientUnits="userSpaceOnUse"><stop stop-color="#D5D5D5"/><stop offset=".21" stop-color="#fff"/><stop offset=".45" stop-color="#272727"/><stop offset=".67" stop-color="#B7B7B7"/><stop offset="1" stop-color="#D5D5D5"/></linearGradient><linearGradient id="c" x1="6340.15" x2="13001.2" y1="12385.5" y2="12385.5" gradientUnits="userSpaceOnUse"><stop stop-color="#D5D5D5"/><stop offset=".21" stop-color="#fff"/><stop offset=".45" stop-color="#272727"/><stop offset=".67" stop-color="#B7B7B7"/><stop offset="1" stop-color="#D5D5D5"/></linearGradient><linearGradient id="d" x1="4715.15" x2="8093.89" y1="-106.401" y2="-8649.36" gradientUnits="userSpaceOnUse"><stop stop-color="#D5D5D5"/><stop offset=".21" stop-color="#fff"/><stop offset=".45" stop-color="#272727"/><stop offset=".67" stop-color="#B7B7B7"/><stop offset="1" stop-color="#D5D5D5"/></linearGradient><linearGradient id="e" x1="1412.92" x2="8073.85" y1="12807.3" y2="12807.3" gradientUnits="userSpaceOnUse"><stop stop-color="#D5D5D5"/><stop offset=".21" stop-color="#fff"/><stop offset=".45" stop-color="#272727"/><stop offset=".67" stop-color="#B7B7B7"/><stop offset="1" stop-color="#D5D5D5"/></linearGradient><linearGradient id="f" x1="30.069" x2="41555.4" y1="138.358" y2="41663.7" gradientUnits="userSpaceOnUse"><stop stop-color="#D5D5D5"/><stop offset=".21" stop-color="#fff"/><stop offset=".45" stop-color="#272727"/><stop offset=".67" stop-color="#B7B7B7"/><stop offset="1" stop-color="#D5D5D5"/></linearGradient><linearGradient id="g" x1="51.649" x2="-39569.8" y1="-990.382" y2="-40611.9" gradientUnits="userSpaceOnUse"><stop stop-color="#D5D5D5"/><stop offset=".21" stop-color="#fff"/><stop offset=".45" stop-color="#272727"/><stop offset=".67" stop-color="#B7B7B7"/><stop offset="1" stop-color="#D5D5D5"/></linearGradient><linearGradient id="h" x1="-118.798" x2="28652" y1="3411.13" y2="35707" gradientUnits="userSpaceOnUse"><stop stop-color="#D5D5D5"/><stop offset=".21" stop-color="#fff"/><stop offset=".45" stop-color="#272727"/><stop offset=".67" stop-color="#B7B7B7"/><stop offset="1" stop-color="#D5D5D5"/></linearGradient><linearGradient id="i" x1="-348.849" x2="-22164" y1="-4341.31" y2="-22484.3" gradientUnits="userSpaceOnUse"><stop stop-color="#D5D5D5"/><stop offset=".21" stop-color="#fff"/><stop offset=".45" stop-color="#272727"/><stop offset=".67" stop-color="#B7B7B7"/><stop offset="1" stop-color="#D5D5D5"/></linearGradient><linearGradient id="j" x1="472.483" x2="21414.5" y1="4750.41" y2="22167.1" gradientUnits="userSpaceOnUse"><stop stop-color="#D5D5D5"/><stop offset=".21" stop-color="#fff"/><stop offset=".45" stop-color="#272727"/><stop offset=".67" stop-color="#B7B7B7"/><stop offset="1" stop-color="#D5D5D5"/></linearGradient><linearGradient id="k" x1="672.365" x2="13905.6" y1="6909.87" y2="17915.5" gradientUnits="userSpaceOnUse"><stop stop-color="#D5D5D5"/><stop offset=".21" stop-color="#fff"/><stop offset=".45" stop-color="#272727"/><stop offset=".67" stop-color="#B7B7B7"/><stop offset="1" stop-color="#D5D5D5"/></linearGradient><linearGradient id="l" x1="599.639" x2="17128.6" y1="6125.43" y2="19871.9" gradientUnits="userSpaceOnUse"><stop stop-color="#D5D5D5"/><stop offset=".21" stop-color="#fff"/><stop offset=".45" stop-color="#272727"/><stop offset=".67" stop-color="#B7B7B7"/><stop offset="1" stop-color="#D5D5D5"/></linearGradient><linearGradient id="n" x1="-7813.28" x2="-6042.21" y1="21080.1" y2="22649.4" gradientUnits="userSpaceOnUse"><stop stop-color="#D5D5D5"/><stop offset=".21" stop-color="#fff"/><stop offset=".45" stop-color="#272727"/><stop offset=".67" stop-color="#B7B7B7"/><stop offset="1" stop-color="#D5D5D5"/></linearGradient><linearGradient id="o" x1="-1564.25" x2="-162.397" y1="15000" y2="16242.1" gradientUnits="userSpaceOnUse"><stop stop-color="#D5D5D5"/><stop offset=".21" stop-color="#fff"/><stop offset=".45" stop-color="#272727"/><stop offset=".67" stop-color="#B7B7B7"/><stop offset="1" stop-color="#D5D5D5"/></linearGradient><linearGradient id="p" x1="-841.456" x2="1330.48" y1="21969.3" y2="23893.8" gradientUnits="userSpaceOnUse"><stop stop-color="#D5D5D5"/><stop offset=".21" stop-color="#fff"/><stop offset=".45" stop-color="#272727"/><stop offset=".67" stop-color="#B7B7B7"/><stop offset="1" stop-color="#D5D5D5"/></linearGradient><linearGradient id="q" x1="1935.38" x2="3698.1" y1="22364.1" y2="23926" gradientUnits="userSpaceOnUse"><stop stop-color="#D5D5D5"/><stop offset=".21" stop-color="#fff"/><stop offset=".45" stop-color="#272727"/><stop offset=".67" stop-color="#B7B7B7"/><stop offset="1" stop-color="#D5D5D5"/></linearGradient><linearGradient id="r" x1="4161.04" x2="5775.51" y1="23425.3" y2="24855.8" gradientUnits="userSpaceOnUse"><stop stop-color="#D5D5D5"/><stop offset=".21" stop-color="#fff"/><stop offset=".45" stop-color="#272727"/><stop offset=".67" stop-color="#B7B7B7"/><stop offset="1" stop-color="#D5D5D5"/></linearGradient><linearGradient id="s" x1="6681.97" x2="8245.55" y1="28179.1" y2="29564.5" gradientUnits="userSpaceOnUse"><stop stop-color="#D5D5D5"/><stop offset=".21" stop-color="#fff"/><stop offset=".45" stop-color="#272727"/><stop offset=".67" stop-color="#B7B7B7"/><stop offset="1" stop-color="#D5D5D5"/></linearGradient><linearGradient id="t" x1="8345.04" x2="9914.62" y1="28354.3" y2="29745" gradientUnits="userSpaceOnUse"><stop stop-color="#D5D5D5"/><stop offset=".21" stop-color="#fff"/><stop offset=".45" stop-color="#272727"/><stop offset=".67" stop-color="#B7B7B7"/><stop offset="1" stop-color="#D5D5D5"/></linearGradient><linearGradient id="u" x1="2358.97" x2="3289.23" y1="13592.3" y2="14416.5" gradientUnits="userSpaceOnUse"><stop stop-color="#D5D5D5"/><stop offset=".21" stop-color="#fff"/><stop offset=".45" stop-color="#272727"/><stop offset=".67" stop-color="#B7B7B7"/><stop offset="1" stop-color="#D5D5D5"/></linearGradient><linearGradient id="v" x1="4401.43" x2="5652.56" y1="17854.1" y2="18962.7" gradientUnits="userSpaceOnUse"><stop stop-color="#D5D5D5"/><stop offset=".21" stop-color="#fff"/><stop offset=".45" stop-color="#272727"/><stop offset=".67" stop-color="#B7B7B7"/><stop offset="1" stop-color="#D5D5D5"/></linearGradient><linearGradient id="w" x1="4922.61" x2="5353.72" y1="14323" y2="14705" gradientUnits="userSpaceOnUse"><stop stop-color="#D5D5D5"/><stop offset=".21" stop-color="#fff"/><stop offset=".45" stop-color="#272727"/><stop offset=".67" stop-color="#B7B7B7"/><stop offset="1" stop-color="#D5D5D5"/></linearGradient><linearGradient id="x" x1="4960.81" x2="6485.11" y1="28795.1" y2="30145.8" gradientUnits="userSpaceOnUse"><stop stop-color="#D5D5D5"/><stop offset=".21" stop-color="#fff"/><stop offset=".45" stop-color="#272727"/><stop offset=".67" stop-color="#B7B7B7"/><stop offset="1" stop-color="#D5D5D5"/></linearGradient><linearGradient id="y" x1="-10148.3" x2="-8689.58" y1="32335.6" y2="33628.2" gradientUnits="userSpaceOnUse"><stop stop-color="#D5D5D5"/><stop offset=".21" stop-color="#fff"/><stop offset=".45" stop-color="#272727"/><stop offset=".67" stop-color="#B7B7B7"/><stop offset="1" stop-color="#D5D5D5"/></linearGradient><linearGradient id="z" x1="-14574.1" x2="-13812.5" y1="39800.1" y2="40474.9" gradientUnits="userSpaceOnUse"><stop stop-color="#D5D5D5"/><stop offset=".21" stop-color="#fff"/><stop offset=".45" stop-color="#272727"/><stop offset=".67" stop-color="#B7B7B7"/><stop offset="1" stop-color="#D5D5D5"/></linearGradient><linearGradient id="A" x1="-5948.27" x2="-5135.41" y1="30958.5" y2="31678.8" gradientUnits="userSpaceOnUse"><stop stop-color="#D5D5D5"/><stop offset=".21" stop-color="#fff"/><stop offset=".45" stop-color="#272727"/><stop offset=".67" stop-color="#B7B7B7"/><stop offset="1" stop-color="#D5D5D5"/></linearGradient><linearGradient id="B" x1="-3561.41" x2="-2753.81" y1="26740.2" y2="27455.8" gradientUnits="userSpaceOnUse"><stop stop-color="#D5D5D5"/><stop offset=".21" stop-color="#fff"/><stop offset=".45" stop-color="#272727"/><stop offset=".67" stop-color="#B7B7B7"/><stop offset="1" stop-color="#D5D5D5"/></linearGradient><linearGradient id="C" x1="-2659.16" x2="-2080.15" y1="28115.7" y2="28628.7" gradientUnits="userSpaceOnUse"><stop stop-color="#D5D5D5"/><stop offset=".21" stop-color="#fff"/><stop offset=".45" stop-color="#272727"/><stop offset=".67" stop-color="#B7B7B7"/><stop offset="1" stop-color="#D5D5D5"/></linearGradient><linearGradient id="D" x1="-1559.28" x2="-486.373" y1="36040.5" y2="36991.2" gradientUnits="userSpaceOnUse"><stop stop-color="#D5D5D5"/><stop offset=".21" stop-color="#fff"/><stop offset=".45" stop-color="#272727"/><stop offset=".67" stop-color="#B7B7B7"/><stop offset="1" stop-color="#D5D5D5"/></linearGradient><linearGradient id="E" x1="-34.188" x2="544.819" y1="30432.9" y2="30946" gradientUnits="userSpaceOnUse"><stop stop-color="#D5D5D5"/><stop offset=".21" stop-color="#fff"/><stop offset=".45" stop-color="#272727"/><stop offset=".67" stop-color="#B7B7B7"/><stop offset="1" stop-color="#D5D5D5"/></linearGradient><linearGradient id="F" x1="1154.99" x2="2436.73" y1="39648.1" y2="40783.8" gradientUnits="userSpaceOnUse"><stop stop-color="#D5D5D5"/><stop offset=".21" stop-color="#fff"/><stop offset=".45" stop-color="#272727"/><stop offset=".67" stop-color="#B7B7B7"/><stop offset="1" stop-color="#D5D5D5"/></linearGradient><linearGradient id="G" x1="4546.61" x2="5316.1" y1="29699.9" y2="30381.7" gradientUnits="userSpaceOnUse"><stop stop-color="#D5D5D5"/><stop offset=".21" stop-color="#fff"/><stop offset=".45" stop-color="#272727"/><stop offset=".67" stop-color="#B7B7B7"/><stop offset="1" stop-color="#D5D5D5"/></linearGradient><linearGradient id="H" x1="-2127.42" x2="11164.1" y1="17195.1" y2="29598.9" gradientUnits="userSpaceOnUse"><stop stop-color="#D5D5D5"/><stop offset=".21" stop-color="#fff"/><stop offset=".45" stop-color="#272727"/><stop offset=".67" stop-color="#B7B7B7"/><stop offset="1" stop-color="#D5D5D5"/></linearGradient><linearGradient id="I" x1="-7759.9" x2="5531.22" y1="23230.2" y2="35633.6" gradientUnits="userSpaceOnUse"><stop stop-color="#D5D5D5"/><stop offset=".21" stop-color="#fff"/><stop offset=".45" stop-color="#272727"/><stop offset=".67" stop-color="#B7B7B7"/><stop offset="1" stop-color="#D5D5D5"/></linearGradient><linearGradient id="J" x1="1494.7" x2="1948.81" y1="5593.98" y2="6159.55" gradientUnits="userSpaceOnUse"><stop stop-color="#D5D5D5"/><stop offset=".21" stop-color="#fff"/><stop offset=".45" stop-color="#272727"/><stop offset=".67" stop-color="#B7B7B7"/><stop offset="1" stop-color="#D5D5D5"/></linearGradient><linearGradient id="K" x1="1862" x2="2162.71" y1="6336.92" y2="6711.44" gradientUnits="userSpaceOnUse"><stop stop-color="#D5D5D5"/><stop offset=".21" stop-color="#fff"/><stop offset=".45" stop-color="#272727"/><stop offset=".67" stop-color="#B7B7B7"/><stop offset="1" stop-color="#D5D5D5"/></linearGradient><linearGradient id="L" x1="977.967" x2="1280.82" y1="5250.93" y2="5628.12" gradientUnits="userSpaceOnUse"><stop stop-color="#D5D5D5"/><stop offset=".21" stop-color="#fff"/><stop offset=".45" stop-color="#272727"/><stop offset=".67" stop-color="#B7B7B7"/><stop offset="1" stop-color="#D5D5D5"/></linearGradient><linearGradient id="M" x1="-3023.61" x2="-2480.54" y1="10676.6" y2="11283.8" gradientUnits="userSpaceOnUse"><stop stop-color="#D5D5D5"/><stop offset=".21" stop-color="#fff"/><stop offset=".45" stop-color="#272727"/><stop offset=".67" stop-color="#B7B7B7"/><stop offset="1" stop-color="#D5D5D5"/></linearGradient><linearGradient id="N" x1="-3496.03" x2="-3133.99" y1="10251" y2="10655.8" gradientUnits="userSpaceOnUse"><stop stop-color="#D5D5D5"/><stop offset=".21" stop-color="#fff"/><stop offset=".45" stop-color="#272727"/><stop offset=".67" stop-color="#B7B7B7"/><stop offset="1" stop-color="#D5D5D5"/></linearGradient><linearGradient id="O" x1="-2441.07" x2="-2081.5" y1="11419.3" y2="11821.3" gradientUnits="userSpaceOnUse"><stop stop-color="#D5D5D5"/><stop offset=".21" stop-color="#fff"/><stop offset=".45" stop-color="#272727"/><stop offset=".67" stop-color="#B7B7B7"/><stop offset="1" stop-color="#D5D5D5"/></linearGradient><radialGradient id="m" cx="0" cy="0" r="1" gradientTransform="matrix(16280.7 0 0 16301.7 3473.95 3460.43)" gradientUnits="userSpaceOnUse"><stop stop-color="#CBCBCB"/><stop offset=".14" stop-color="#6E6E6E"/><stop offset="1"/></radialGradient><clipPath id="a"><path fill="#fff" d="M.86 0h92.586v120H.86z"/></clipPath></defs></svg>