<svg xmlns="http://www.w3.org/2000/svg" width="20" height="20" fill="none"><path fill="#191919" d="M0 1.433C0 .64.657 0 1.469 0H18.53C19.343 0 20 .641 20 1.433v17.134C20 19.36 19.343 20 18.531 20H1.47C.657 20 0 19.359 0 18.567zm6.179 15.31V7.71H3.177v9.031H6.18Zm-1.5-10.265c1.046 0 1.697-.693 1.697-1.56-.019-.887-.65-1.56-1.677-1.56C3.67 3.357 3 4.032 3 4.918c0 .867.651 1.56 1.659 1.56zm6.135 10.264V11.7c0-.27.02-.54.1-.733.216-.538.71-1.097 1.54-1.097 1.086 0 1.52.827 1.52 2.042v4.832h3.001v-5.18c0-2.776-1.48-4.066-3.455-4.066-1.592 0-2.306.876-2.706 1.492v.031h-.02l.02-.031V7.71h-3c.037.848 0 9.031 0 9.031h3Z"/></svg>