<svg xmlns="http://www.w3.org/2000/svg" width="101" height="100" fill="none"><path fill="url(#a)" fill-rule="evenodd" d="M45.947 8.912c-1.006-.932-2.128-1.38-3.2-1.38-1.567.002-3.028.964-3.864 2.785-1.41 3.067-5.152 4.618-8.317 3.445-3.166-1.172-5.86.629-5.988 4.002s-2.993 6.237-6.366 6.365-5.173 2.823-4.002 5.988c1.173 3.165-.377 6.908-3.445 8.318-3.066 1.409-3.698 4.588-1.405 7.063 2.295 2.476 2.295 6.527 0 9.003-2.293 2.475-1.661 5.654 1.405 7.063 3.068 1.41 4.618 5.152 3.445 8.317-1.171 3.165.63 5.86 4.002 5.989 3.373.128 6.237 2.993 6.366 6.365s2.822 5.174 5.988 4.002c3.165-1.172 6.908.378 8.317 3.444 1.41 3.068 4.587 3.7 7.064 1.405 2.476-2.294 6.526-2.293 9.002 0 2.476 2.295 5.654 1.662 7.063-1.405 1.41-3.066 5.153-4.616 8.318-3.444s5.86-.629 5.988-4.002 2.993-6.237 6.365-6.365c3.373-.13 5.174-2.824 4.002-5.989s.378-6.907 3.445-8.317c3.067-1.409 3.699-4.588 1.404-7.063-2.293-2.476-2.293-6.527 0-9.003 2.295-2.475 1.663-5.654-1.404-7.063-3.067-1.41-4.618-5.152-3.445-8.318 1.172-3.165-.629-5.86-4.002-5.988s-6.237-2.993-6.365-6.365-2.823-5.174-5.988-4.002-6.909-.378-8.318-3.445c-.836-1.82-2.297-2.783-3.864-2.785-1.072 0-2.193.448-3.199 1.38-1.238 1.147-2.87 1.72-4.501 1.72-1.633 0-3.264-.573-4.501-1.72" clip-rule="evenodd"/><path fill="#231F20" d="M75.447 75c13.807-13.807 13.807-36.193 0-50s-36.193-13.807-50 0-13.808 36.193 0 50 36.192 13.807 50 0"/><path fill="url(#b)" fill-rule="evenodd" d="M76.87 52.623q-.038.074-.185.705-.146.625-.329 1.28-.18.653-.54 1.299-.357.646-.684.79a5 5 0 0 1-.422.168q-1.095.319-1.417-.782-.378-1.296.454-3.425.32-.802.872-1.783.551-.98.593-1.102.043-.12.805-3.85-.773 1.58-1.52 2.641c-.496.71-1.039 1.185-1.621 1.422l-.085.025q-.463.134-1-.033-.416-.133-.647-.615-.321.431-.603.752-.668.764-1.484 1.002a2 2 0 0 1-.342.066c-.672.065-1.202-.031-1.603-.288a1.8 1.8 0 0 1-.562-.594q-.305.537-.773 1.025-1.057 1.102-1.995 1.377a2.4 2.4 0 0 1-1.802-.155 2.8 2.8 0 0 1-.55-.355q-.315.392-.68.72-1.076.968-2.188 1.292-1.12.328-1.898-.183-.562-.37-.9-1.082a10 10 0 0 1-.729 1.216c-.597.861-1.213 1.389-1.849 1.575q-.956.28-1.578-.171a2.15 2.15 0 0 1-.827-1.157q-.208-.705-.128-1.31a10.6 10.6 0 0 1-1.625 2.836q-1.015 1.266-1.823 1.502-.807.236-1.46-.1a2 2 0 0 1-.686-.56q-.113.18-.244.374-.889 1.297-1.929 1.603c-.43.127-.86.112-1.302-.04q-.66-.225-.941-1.186c-.188-.64-.203-1.323-.043-2.038q-1.86 4.553-3.54 5.046c-.44.13-.848.077-1.212-.16q-.547-.355-.697-.861a4.4 4.4 0 0 1-.164-1.087c-.007-.386-.001-.74.021-1.054q.032-.479.164-1.197.13-.723.202-1.054c.046-.22.129-.552.24-1.003q.17-.676.437-1.81.267-1.139.493-1.71.22-.58.566-.686.343-.108.686.103c.23.14.364.267.4.389q.05.177-.326 1.834-1.106 4.938-.9 5.642.05.177.182.14c.377-.11 1.085-1.21 2.114-3.303q1.545-3.135 1.696-3.93.153-.804.354-1.377c.13-.38.244-.625.332-.73.276-.319.682-.57 1.214-.739.089-.026.158-.046.205-.051q.077-.009.225.154a.75.75 0 0 1 .186.272c-.01.24-.148.923-.427 2.043a67 67 0 0 0-.457 1.899c-.37 2.208-.468 3.6-.295 4.189q.144.498.527.386c.439-.199.887-.726 1.339-1.589q.122-.232.242-.467a6 6 0 0 1 .038-1.235q.162-1.23.684-2.352a13 13 0 0 1 1.244-2.138q1.519-2.123 3.184-2.61.64-.187 1.105-.09.47.093.667.385.162-.514.323-.684c.109-.111.296-.21.555-.286.6-.176.965-.058 1.086.355q.095.33-.012.532c-.076.132-.193.54-.36 1.219a26 26 0 0 0-.46 2.56q-.215 1.542-.11 2.554c-.002.084.019.202.06.343q.19.653.548.548c.235-.069.486-.265.744-.587.259-.318.475-.646.656-.976q.263-.5.51-1.007c.16-.338.26-.539.298-.59a.2.2 0 0 1 .029-.035q-.235-1.816-.018-4.167.322-3.495 1.237-6.145c1.366-3.992 2.669-6.17 3.9-6.53q.573-.17 1.105.042c.354.143.597.432.728.878q.193.662-.128 2.3a27.5 27.5 0 0 1-.918 3.416 76 76 0 0 1-1.42 3.822 90 90 0 0 1-2.58 5.901c.02.1.039.284.054.561q.025.408.139.804.114.39.571.599.453.21.989.053c.357-.104.7-.346 1.031-.716a6 6 0 0 0 .82-1.155q.115-.22.22-.41a12 12 0 0 1 .098-.56q.29-1.437.634-2.69.341-1.248.318-1.333-.027-.091-.347-.282-.32-.192-.356-.313c-.025-.086.074-.348.3-.797q.338-.674.893-1.397t.931-.832c.248-.072.506-.03.767.136q.394.242.477.517.078.273-1.323 5.972a6 6 0 0 1-.103.37 8 8 0 0 0-.133.479l-.094.445q-.096.546-.002.863.12.407.662.247.546-.162 1.026-.706c.32-.366.575-.74.775-1.125q.449-.898.688-1.284.012-.146.028-.299.15-1.403.52-3.048a94 94 0 0 1 1.295-5.072l-.432.193q-1.33.557-1.555.623l-.11.032a1.8 1.8 0 0 1-.706.057q-.326-.039-.405-.21a1.4 1.4 0 0 1-.24.096c-.453.132-.755-.039-.893-.513-.14-.475-.07-.988.201-1.534q.413-.825 1.136-1.037.323-.093.563.029.241.12.337.443.06.204.062.423a1 1 0 0 1 .164-.085c.18-.061.355-.126.523-.184q.253-.087.56-.19.314-.105.476-.166l1.057-.358q.559-1.79.806-2.327c.168-.358.264-.557.296-.597a.5.5 0 0 1 .227-.11l.535-.232.521-.025q.11-.032.221.05a.35.35 0 0 1 .145.177q.028.098-.102.584a36 36 0 0 1-.311 1.117q-.18.626-.192.682a19 19 0 0 1 1.292-.458c.255-.075.44-.107.543-.098q.155.01.416.2.254.189.444.27.189.078.263.328t-.18.51a1.7 1.7 0 0 1-.584.396q-2.674 1.082-2.957 1.175c-.352 1.172-.805 2.964-1.347 5.38s-.774 3.894-.69 4.437q.058.373.123.598.136.462.622.32.486-.145.973-.69a9.4 9.4 0 0 0 .852-1.135l.31-.495a6 6 0 0 1 .049-.217c.07-.285.195-.775.377-1.462.18-.691.344-1.351.483-1.986q.234-.78.431-1.776c.134-.67.24-1.15.326-1.443q.128-.446.343-.51.212-.062.63.106c.279.112.455.294.527.537q.107.368-.621 3.65-.728 3.285-.614 3.675c.02.064.06.083.12.066.215-.064.602-.502 1.153-1.324q.835-1.23 1.75-3.044 1.02-2.013 1.48-3.567c.037-.134.073-.236.096-.305a4 4 0 0 0 .096-.288l.1-.28.096-.24q.056-.14.111-.221c.038-.051.075-.106.12-.163a.43.43 0 0 1 .257-.203q.158-.045.507-.073.349-.022.438.038c.057.045.121.084.179.115q.161.099.192.208.035.114-.008.328-.039.211-.552 2.204-1.506 5.882-1.943 8.513c.907-1.366 3.662-5.379 5.27-8.006a.4.4 0 0 1 .228-.18q.37-.108.699 1.018c.065.222.077.387.012.476-1.825 2.52-4.972 7.216-6.406 10.078m-44.445-6.479q-.307-1.046-1.45-.71-2.085.61-3.937 2.425-1.846 1.808-3.245 4.308a19.5 19.5 0 0 0-2.01 5.171q-.616 2.678-.223 4.018.182.618.562.777.668-.195 1.958-1.445a9.6 9.6 0 0 0 2.055-2.9q.085-.156.15-.176c.046-.013.079-.005.102.015l.157.143q.123.105.23.214a1.8 1.8 0 0 1 .429.76q.13.443-.044 1.038-.176.591-.95 1.682 1.171-.843 2.77-3.751 1.599-2.906 2.424-5.319.831-2.414 1.006-4.049.183-1.63.016-2.2Zm-2.557-2.477q1.896-.555 3.136.098 1.234.65 1.62 1.969.385 1.313.27 2.993c-.078 1.118-.297 2.31-.666 3.575a27 27 0 0 1-1.416 3.76 20.2 20.2 0 0 1-2.109 3.558q-1.251 1.695-2.66 2.79.136.052.567.235c.29.121.492.208.61.252q.176.075.566.23.382.158.577.215.192.063.523.176c.22.077.393.127.528.15q.195.033.44.077a1.68 1.68 0 0 0 1.313-.27.7.7 0 0 0 .25-.271q.048-.125.083-.227.032-.096.094-.115.153-.044.203.12.047.165-.035.499a3 3 0 0 1-.306.741c-.145.272-.435.59-.86.957q-.637.548-1.184.707-1.982.58-6.884-2.587-.969.864-1.91 1.14-.938.275-1.945-.341-1.003-.611-1.387-1.926-.385-1.313-.031-3.53.642-4.16 2.746-7.666 3.672-6.08 7.867-7.309m21.145 3.88c-1.354.397-2.532 1.557-3.543 3.486-.357.69-.638 1.472-.851 2.353q-.317 1.315-.196 1.734.121.414.36.344.334-.098 1.468-1.856 1.137-1.754 1.453-2.521.348-.847 1.31-3.54Zm9.349-11.584q-.052-.178-.174-.143-.414.12-1.49 3.016c-.716 1.925-1.197 3.44-1.448 4.534q-.376 1.65-.452 3.988c.613-1.38 1.396-3.485 2.362-6.316q1.444-4.245 1.202-5.08Z" clip-rule="evenodd"/><path fill="#fff" fill-rule="evenodd" d="M50.448 28.592a21.33 21.33 0 0 1 14.629 5.78l-.719.254a20.66 20.66 0 0 0-13.91-5.359 20.67 20.67 0 0 0-14.66 6.072 20.8 20.8 0 0 0-4.117 5.858l-.768.056a21.4 21.4 0 0 1 4.407-6.39 21.34 21.34 0 0 1 15.138-6.271M62.16 67.92a21.3 21.3 0 0 1-12.815 3.46l2.596-.701a20.6 20.6 0 0 0 7.64-2.063l2.58-.696Zm-15.133 3.215a21.3 21.3 0 0 1-6.794-2.318l.961-.259a20.6 20.6 0 0 0 6.136 1.941zM28.143 41.037l-.232.589-3.902-1.538-.032 1.352-.532-.21.033-1.926.036-.092 4.63 1.825Zm.43-5.45q.959.551 1.237 1.147t-.122 1.291q-.395.688-1.041.756t-1.56-.441l-.729-.42q-.948-.544-1.22-1.137-.272-.592.13-1.291.4-.694 1.03-.765.634-.072 1.566.452l.709.407Zm-1.064.114q-.693-.398-1.122-.386t-.672.434q-.24.42-.035.792t.857.756l.874.503q.697.4 1.146.389.448-.01.684-.421.232-.405.032-.78t-.868-.772zm3.64-3.458-.643-.505q-.848-.653-1.484-.672-.635-.02-1.13.608-.498.634-.314 1.26.184.625 1.044 1.3l.662.52q.83.636 1.48.66.649.026 1.14-.598.495-.63.305-1.26t-1.06-1.313m-1.068-.039q-.63-.494-1.056-.544t-.727.333q-.299.381-.149.78.15.398.74.87l.793.623q.632.498 1.078.55.444.055.737-.318.288-.366.144-.768-.144-.4-.748-.888zm.654-2.214a1 1 0 0 1-.267-.742.98.98 0 0 1 .362-.697q.343-.296.745-.26.403.036.707.387l.158.182q.294.341.266.742a.98.98 0 0 1-.36.688q-.335.289-.74.264-.405-.026-.715-.384zm.525-.11q.175.2.4.232a.5.5 0 0 0 .416-.133.5.5 0 0 0 .185-.381q.003-.222-.186-.441l-.163-.188a.66.66 0 0 0-.399-.237.5.5 0 0 0-.414.13.5.5 0 0 0-.187.39.68.68 0 0 0 .185.44zm3.12.634a1 1 0 0 1-.266-.74.98.98 0 0 1 .365-.696 1 1 0 0 1 .74-.263q.403.03.713.386l.158.183a.976.976 0 0 1-.095 1.433 1 1 0 0 1-.74.264q-.405-.024-.714-.382l-.16-.185Zm.528-.108a.64.64 0 0 0 .4.234.5.5 0 0 0 .417-.133.5.5 0 0 0 .186-.384q0-.222-.188-.44l-.165-.191a.64.64 0 0 0-.4-.234.5.5 0 0 0-.41.131.5.5 0 0 0-.187.385.66.66 0 0 0 .182.442zm-.921 1.56-.418.065-.702-4.507.417-.065zm4.803-5.202.798 1.766-.595.269-2.041-4.515 1.665-.753q.74-.335 1.332-.146.591.188.873.812.297.657.047 1.199-.25.541-1.016.887zm-.221-.489 1.07-.483q.477-.217.629-.557.152-.338-.04-.764-.182-.404-.546-.53-.363-.127-.81.064l-1.104.498.8 1.772Zm5.784-1.59-1.134.262.45 1.95-.64.147-1.114-4.828 1.598-.37q.816-.187 1.341.083t.69.981a1.35 1.35 0 0 1-.062.844q-.167.39-.562.658l1.606 1.783.009.04-.684.157zm-1.255-.26.98-.227q.473-.108.697-.42a.86.86 0 0 0 .129-.722q-.105-.448-.427-.626t-.826-.064l-.976.225.424 1.833Zm6.75-.774-2.14.163.132 1.745 2.487-.19.04.535-3.138.24-.376-4.941 3.105-.237.04.535-2.452.187.12 1.591 2.141-.163.04.535Zm2.808-2.592 1.096 4.215 2.117-3.807.84.107-.624 4.915-.648-.082.243-1.914.323-2.058-2.12 3.775-.496-.064-1.105-4.175-.196 2.066-.244 1.913-.649-.082.625-4.916zm5.195 6.055-.63-.178 1.354-4.767.63.179zm6.358-2.71-1.388 3.071q-.292.636-.875.863-.582.226-1.287-.033l-.16-.064q-.742-.336-1-.935-.26-.6.051-1.303l1.391-3.077.59.266-1.383 3.057q-.221.49-.075.884.147.393.647.618.505.229.895.08t.612-.638l1.383-3.06.6.27Zm2.63 1.61-.664-.522-3.061 3.896.514.405 1.192-1.517 1.23-1.671-1.197 4.15.393.31 3.758-2.15-1.335 1.6-1.191 1.517.513.403 3.061-3.897-.666-.523-3.772 2.178 1.225-4.18Z" clip-rule="evenodd"/><path fill="#fff" fill-rule="evenodd" d="M50.448 17.87c8.872 0 16.905 3.597 22.719 9.41a32.2 32.2 0 0 1 5.981 8.262h-.752a31.5 31.5 0 0 0-5.702-7.788C67 22.061 59.135 18.539 50.448 18.539c-8.688 0-16.554 3.522-22.247 9.215S18.987 41.312 18.987 50q0 1.129.079 2.238l-.544 1.406A33 33 0 0 1 18.318 50c0-8.872 3.596-16.905 9.41-22.72 5.814-5.813 13.847-9.41 22.72-9.41m31.999 29.21-.599.96q.06.973.06 1.96c0 8.688-3.521 16.553-9.214 22.246C67 77.94 59.135 81.461 50.448 81.461c-8.688 0-16.554-3.522-22.247-9.215a31.6 31.6 0 0 1-4.56-5.771c-.2.109-.42.188-.635.245a32.3 32.3 0 0 0 4.723 6c5.813 5.814 13.846 9.41 22.719 9.41 8.872 0 16.905-3.596 22.719-9.41 5.814-5.815 9.41-13.848 9.41-22.72q0-1.477-.13-2.92" clip-rule="evenodd"/><path fill="url(#c)" fill-rule="evenodd" d="M65.267 69.888v27.96l-14.862-6.269-14.861 6.269V77.91l29.723-8.023Z" clip-rule="evenodd"/><path fill="url(#d)" fill-rule="evenodd" d="M38.796 77.033V94.5l-1.201.507v-17.65zm24.42-6.592v24.566l-1.202-.507V70.766l.56-.151z" clip-rule="evenodd"/><path fill="#fff" fill-rule="evenodd" d="m35.251 63.148 35.512-9.586.564-.152.725-.196a21.3 21.3 0 0 1-2.25 6.33l-.58.156-.335.09-.582.157L35.25 68.87l1.622-3.401-1.622-2.32Z" clip-rule="evenodd"/><path fill="#231F20" fill-rule="evenodd" d="M39.803 64.947q-.539-.011-.785-.172-.246-.159-.246-.492 0-.376.3-.703a1.6 1.6 0 0 1 .781-.455q.329-.088.585-.03a.66.66 0 0 1 .398.243.72.72 0 0 1 .14.45l-.42.113q0-.29-.184-.406-.184-.115-.519-.026a1 1 0 0 0-.483.266.6.6 0 0 0-.174.427q0 .195.165.285t.562.096q.396.005.62.08.224.074.332.225a.65.65 0 0 1 .108.393q0 .388-.301.7-.302.314-.806.45a1.4 1.4 0 0 1-.613.038.73.73 0 0 1-.438-.227.67.67 0 0 1-.153-.455l.421-.113q0 .288.213.397t.57.015q.331-.09.508-.272a.58.58 0 0 0 .178-.416q0-.234-.164-.318-.163-.084-.595-.093m3.476-.346-1.334.358-.3.912-.432.116 1.215-3.507.367-.099 1.218 2.856-.431.115zm-1.208-.02 1.083-.291-.543-1.342zm4.287-2.81v-.345l-2.46.66v.344l1.02-.273v2.837l.417-.112v-2.837zm.922 2.59-.42.113v-3.182l.42-.113zm1.704-1.874q-.54-.011-.786-.172-.246-.159-.246-.492 0-.376.3-.703.303-.327.782-.455.328-.088.584-.03a.66.66 0 0 1 .398.243.72.72 0 0 1 .141.45l-.421.112q0-.288-.184-.405-.183-.115-.518-.026a1 1 0 0 0-.483.266.6.6 0 0 0-.174.426q0 .195.164.286.165.09.562.096a2.1 2.1 0 0 1 .62.08q.224.074.333.225.108.15.108.393 0 .387-.302.7-.302.315-.806.45a1.4 1.4 0 0 1-.612.038.73.73 0 0 1-.438-.227.67.67 0 0 1-.154-.455l.422-.113q0 .288.213.397.212.11.57.015.33-.09.508-.273a.58.58 0 0 0 .177-.416q0-.233-.164-.317-.163-.084-.594-.093m3.473-.918-1.335.357v1.406l-.42.112v-3.182l1.971-.528v.345l-1.55.415v1.088l1.334-.358zm2.104.009.303.751.43-.115-1.217-2.856-.367.098-1.215 3.508.433-.116.3-.913zm-1.207-.021.54-1.632.542 1.342zm4.686-1.087a1.56 1.56 0 0 1-.373.878 1.64 1.64 0 0 1-.833.498q-.564.15-.904-.162-.34-.315-.34-.992v-.306q0-.444.159-.823.159-.38.449-.637a1.6 1.6 0 0 1 .673-.361q.508-.137.813.065.306.2.356.688l-.422.114q-.053-.368-.236-.489-.184-.12-.511-.034a1.05 1.05 0 0 0-.63.467q-.23.358-.229.907v.308q0 .518.217.767.216.248.605.144.35-.095.536-.302.188-.209.248-.617zm2.707-2.555-1.023.275v2.837l-.416.111v-2.837l-1.02.273v-.344l2.46-.659zm.923 2.59-.42.113v-3.182l.42-.112zm3.214-2.348q0 .467-.158.858a1.7 1.7 0 0 1-.445.652 1.6 1.6 0 0 1-.674.364q-.374.101-.666-.006a.83.83 0 0 1-.45-.406q-.162-.3-.166-.749v-.23q0-.458.16-.854.159-.393.451-.66a1.6 1.6 0 0 1 .668-.365q.382-.102.673.004a.8.8 0 0 1 .45.416q.157.309.157.774zm-.417-.095q0-.564-.227-.806-.228-.243-.636-.133a1.03 1.03 0 0 0-.627.471q-.228.363-.234.902v.234q0 .548.23.8t.635.143.63-.465q.221-.355.229-.91zm3.492.759-.421.112-1.602-2.022v2.451l-.422.114v-3.182l.422-.113 1.605 2.032V55.75l.418-.111z" clip-rule="evenodd"/><path fill="#fff" fill-rule="evenodd" d="m47.529 67.27 33.276-8.982a31.3 31.3 0 0 1-2.532 6.405l-30.744 8.3 1.621-3.403z" clip-rule="evenodd"/><path fill="#231F20" fill-rule="evenodd" d="M53.53 69.697q-.165.277-.452.468a2.3 2.3 0 0 1-.675.296q-.39.104-.69.002a.83.83 0 0 1-.467-.394q-.165-.292-.17-.736v-.277q0-.72.336-1.205a1.6 1.6 0 0 1 .943-.649q.5-.133.802.04.304.173.372.623l-.42.112q-.117-.6-.752-.43-.42.112-.639.467-.217.354-.22.917v.26q0 .537.245.785.246.252.663.14.235-.064.412-.163a.9.9 0 0 0 .294-.255v-.711l-.737.197v-.345l1.154-.309v1.167Zm2.937-3.552v2.165q-.002.45-.283.812a1.6 1.6 0 0 1-.762.525l-.111.035q-.523.14-.833-.06-.31-.198-.314-.691v-2.169l.415-.111v2.154q0 .346.19.486t.542.046a1 1 0 0 0 .545-.336.92.92 0 0 0 .189-.586v-2.157zm2.371 1.714-1.333.358-.3.912-.432.116 1.215-3.507.367-.099 1.217 2.856-.43.115zm-1.206-.021 1.082-.29-.542-1.342zm3.537-1.055-.748.2v1.285L60 68.38V65.2l1.054-.283q.538-.143.827.024.29.168.29.636 0 .297-.16.562a1.4 1.4 0 0 1-.448.45l.748 1.148v.026l-.45.12zm-.748-.144.645-.173a.97.97 0 0 0 .497-.295.72.72 0 0 0 .185-.483q0-.296-.176-.407-.175-.109-.508-.023l-.643.172zm4.092-.3-1.334.357-.299.913-.432.116 1.215-3.508.367-.098 1.217 2.856-.43.115zm-1.207-.021 1.082-.29-.542-1.343zm4.816-.114-.422.113-1.602-2.022v2.451l-.421.113v-3.182l.421-.112 1.606 2.032v-2.463l.418-.112zM71 62.595l-1.023.274v2.838l-.417.111v-2.837l-1.02.273v-.344l2.46-.659zm2.27.761-1.378.37v1.123l1.601-.429v.345l-2.021.541v-3.182l2-.536v.345l-1.58.423v1.025l1.378-.37zm.745 1.269v-3.182l.898-.24q.415-.113.735-.014a.85.85 0 0 1 .492.39q.175.293.177.73v.205q0 .45-.174.835a1.8 1.8 0 0 1-.497.653 2 2 0 0 1-.75.387l-.88.236Zm.42-2.95v2.493l.441-.118a1.32 1.32 0 0 0 .756-.504q.27-.375.27-.931v-.186q0-.542-.255-.773-.255-.234-.722-.112zm2.905 1.154-.365.098-.029-2.27.424-.113zm-.409.806a.31.31 0 0 1 .238-.299q.119-.03.179.02.061.051.061.152a.3.3 0 0 1-.061.18.3.3 0 0 1-.179.114q-.118.032-.178-.018-.06-.048-.06-.149" clip-rule="evenodd"/><path fill="#fff" fill-rule="evenodd" d="m45.618 33.041-.491 1.115.639 1.037-1.212-.123-.79.929-.256-1.192-1.127-.463 1.053-.613.092-1.214.908.812zm-5.068 2.37-.103 1.214.941.774-1.186.276-.445 1.135-.63-1.044-1.217-.072.798-.922-.306-1.179 1.122.474 1.027-.656Zm-3.779 3.457.258 1.191 1.127.463-1.054.613-.091 1.215-.909-.812-1.184.288.492-1.115-.64-1.037 1.212.123.79-.929Zm14.084-6.431-.81.91.29 1.184-1.116-.49-1.036.642.12-1.212-.93-.787 1.19-.26.461-1.128.616 1.052zm5.806 1.108-1.077.568-.144 1.21-.873-.85-1.195.238.538-1.093-.595-1.063 1.205.174.827-.895.208 1.2 1.106.51Z" clip-rule="evenodd"/><path fill="url(#e)" fill-rule="evenodd" d="M65.267 69.888v7.87a31.6 31.6 0 0 0 7.702-5.791z" clip-rule="evenodd"/><defs><linearGradient id="a" x1="50.448" x2="50.448" y1="10.802" y2="106.302" gradientUnits="userSpaceOnUse"><stop stop-color="#F9F076"/><stop offset=".23" stop-color="#FED844"/><stop offset=".35" stop-color="#FDBA19"/><stop offset=".4" stop-color="#FED844"/><stop offset=".47" stop-color="#FED844"/><stop offset=".77" stop-color="#B8792A"/><stop offset=".88" stop-color="#FFCC35"/><stop offset="1" stop-color="#FFCC35"/></linearGradient><linearGradient id="b" x1="47.941" x2="53.314" y1="40.668" y2="59.126" gradientUnits="userSpaceOnUse"><stop stop-color="#F9F076"/><stop offset=".23" stop-color="#FED844"/><stop offset=".35" stop-color="#FDBA19"/><stop offset=".4" stop-color="#FED844"/><stop offset=".47" stop-color="#FED844"/><stop offset=".77" stop-color="#B8792A"/><stop offset=".88" stop-color="#FFCC35"/><stop offset="1" stop-color="#FFCC35"/></linearGradient><linearGradient id="c" x1="50.207" x2="50.654" y1="76.557" y2="93.024" gradientUnits="userSpaceOnUse"><stop stop-color="#741012"/><stop offset=".123" stop-color="#861215"/><stop offset=".531" stop-color="#BD171D"/><stop offset=".836" stop-color="#E01B22"/><stop offset="1" stop-color="#ED1C24"/></linearGradient><linearGradient id="d" x1="50.405" x2="50.405" y1="29.933" y2="87.431" gradientUnits="userSpaceOnUse"><stop stop-color="#F9F076"/><stop offset=".23" stop-color="#FED844"/><stop offset=".35" stop-color="#FDBA19"/><stop offset=".4" stop-color="#FED844"/><stop offset=".47" stop-color="#FED844"/><stop offset=".77" stop-color="#B8792A"/><stop offset=".88" stop-color="#FFCC35"/><stop offset="1" stop-color="#FFCC35"/></linearGradient><linearGradient id="e" x1="67.973" x2="60.252" y1="73.823" y2="73.823" gradientUnits="userSpaceOnUse"><stop stop-color="#B3B2B3"/><stop offset=".163" stop-color="#9C9B9C"/><stop offset=".505" stop-color="#605F61"/><stop offset=".996" stop-color="#010103"/><stop offset="1" stop-color="#000002"/></linearGradient></defs></svg>