<svg xmlns="http://www.w3.org/2000/svg" width="115" height="24" fill="none"><g fill="#191919" clip-path="url(#a)"><path d="M8.701 23.458q-3.512-.116-5.308-1.587-1.797-1.51-2.595-3.368Q0 16.607 0 14.671q0-2.013.758-3.871.799-1.897 2.595-3.368 1.836-1.509 4.63-1.548h12.932q2.793.039 4.59 1.548 1.836 1.47 2.594 3.368a9.7 9.7 0 0 1 .798 3.87q0 1.937-.798 3.833-.798 1.858-2.594 3.368-1.796 1.47-5.309 1.587zm-.878-12.387q-.759 0-1.317.62a3.7 3.7 0 0 0-.838 1.393 5.2 5.2 0 0 0-.24 1.548q0 .813.24 1.626.279.774.838 1.393.558.582 1.317.62h13.251q.759-.038 1.317-.62.56-.618.799-1.393.28-.813.28-1.626a4.5 4.5 0 0 0-.28-1.548 3.34 3.34 0 0 0-.799-1.394q-.558-.62-1.317-.62zm51.009-2.943q0 .967-.798 1.626-.757.62-1.876.62H39.275q-.52 0-.838.193-.32.194-.48.426-.16.193-.16.348 0 .194.16.426.16.194.48.387.319.155.838.194h13.051q2.515.038 4.151.967 1.637.891 2.315 2.13.72 1.2.719 2.438 0 1.2-.719 2.439-.718 1.2-2.355 2.129-1.596.89-4.11.89a8 8 0 0 1-.64.039H36.202q-1.117 0-1.916-.62-.758-.657-.758-1.587 0-.968.798-1.625.759-.62 1.876-.62h16.445q.598.039.957-.155.4-.193.6-.425.198-.232.199-.465 0-.116-.2-.387a1.2 1.2 0 0 0-.599-.464q-.358-.195-.957-.233H39.554q-2.314-.038-3.832-.929-1.516-.93-2.155-2.129-.639-1.2-.639-2.4t.639-2.361q.678-1.2 2.155-2.052 1.518-.89 3.832-.967.4-.04.599-.04h16.005q1.117 0 1.876.659.798.62.798 1.548M66.695 0q1.078.039 1.836.774a2.4 2.4 0 0 1 .798 1.742v18.968q-.24 2.322-2.634 2.516a2.97 2.97 0 0 1-1.956-.697 2.38 2.38 0 0 1-.798-1.82V2.517q.04-1.084.838-1.78Q65.577 0 66.695 0M82.66 23.458q-3.511-.116-5.308-1.587-1.796-1.51-2.594-3.368-.798-1.896-.798-3.832 0-2.013.758-3.871.798-1.897 2.594-3.368 1.836-1.509 4.63-1.548h12.932q2.794.039 4.59 1.548 1.836 1.47 2.595 3.368a9.7 9.7 0 0 1 .798 3.87q0 1.937-.798 3.833-.799 1.858-2.595 3.368-1.796 1.47-5.308 1.587zm-.877-12.387q-.759 0-1.318.62a3.7 3.7 0 0 0-.838 1.393 5.2 5.2 0 0 0-.24 1.548q0 .813.24 1.626.28.774.838 1.393.56.582 1.318.62h13.25q.76-.038 1.318-.62.56-.618.798-1.393.28-.813.28-1.626a4.5 4.5 0 0 0-.28-1.548 3.3 3.3 0 0 0-.798-1.394q-.559-.62-1.317-.62zM111.429 24a2.857 2.857 0 1 0 0-5.715 2.857 2.857 0 0 0 0 5.715"/></g><defs><clipPath id="a"><path fill="#fff" d="M0 0h114.4v24H0z"/></clipPath></defs></svg>