<svg xmlns="http://www.w3.org/2000/svg" width="109" height="34" fill="none"><g fill="#191919" clip-path="url(#a)"><path d="m58.428 26.756-7.394-9.248 6.924-8.178h-4.572l-6.167 7.786V9.33h-3.71v17.427h3.71V21.4l1.36-1.62 5.277 6.976z"/><path d="M67.15 27.07c5.278 0 9.119-3.762 9.119-9.013 0-5.252-3.84-9.014-9.118-9.014-5.252 0-9.092 3.762-9.092 9.014s3.84 9.013 9.092 9.013Zm0-3.292c-3.213 0-5.277-2.482-5.277-5.721 0-3.266 2.064-5.722 5.278-5.722s5.303 2.456 5.303 5.722c0 3.24-2.09 5.721-5.303 5.721Zm21.18 2.978c3.318 0 5.069-2.09 5.069-4.702 0-2.195-1.49-3.998-3.344-4.285 1.645-.34 3.004-1.803 3.004-3.997 0-2.326-1.698-4.442-5.016-4.442h-9.17v17.427h9.457Zm-1.097-10.45h-4.65v-3.789h4.65c1.254 0 2.038.81 2.038 1.908s-.784 1.88-2.038 1.88Zm.13 7.237h-4.78v-4.05h4.78c1.463 0 2.247.94 2.247 2.038 0 1.254-.836 2.012-2.247 2.012m21.165 3.213v-3.265h-8.622v-3.945h8.439V16.28h-8.439v-3.684h8.622V9.33H96.196v17.427zM33.022 8.907v-4.2H18.648V0h-4.599v4.707H0v4.2h14.085v3.802H3.404v16.91h4.345v-12.71h6.336V34h4.49V16.91h6.916v7.965c0 .399-.181.58-.76.58-.58 0-2.716 0-4.527-.073.616 1.159 1.268 3.006 1.449 4.237 2.824 0 4.888-.073 6.409-.724 1.484-.652 1.919-1.883 1.919-3.947V12.709H18.575V8.907z"/></g><defs><clipPath id="a"><path fill="#fff" d="M0 0h108.8v34H0z"/></clipPath></defs></svg>