<svg xmlns="http://www.w3.org/2000/svg" width="93" height="32" fill="none"><g fill="#191919" clip-path="url(#a)"><path d="M19.741 0h3.765v19.537H19.74V0Zm43.005 0h-3.765v19.537h3.765zM74.88 5.605l-7.294 6.226 7.96 7.705h-4.778l-7.935-7.82 6.922-6.11h5.126Zm-27.438 9.307h-3.475q-.058.392.116 1.009t.637 1.317q.492.674 1.361 1.29.87.589 2.172.98 1.332.366 3.157.365 2.055 0 3.533-.476 1.477-.505 2.259-1.43.81-.924.81-2.27 0-1.093-.491-1.794a3.25 3.25 0 0 0-1.275-1.15 8.2 8.2 0 0 0-1.853-.728 30 30 0 0 0-2.144-.505q-.54-.09-1.008-.177a38 38 0 0 1-1.221-.243l-.061-.014-.102-.025-.032-.008-.073-.019-.069-.019q-.627-.174-.995-.42a1.1 1.1 0 0 1-.232-.238l-.02-.03-.022-.033a1 1 0 0 1-.051-.097 1.2 1.2 0 0 1-.11-.527q0-.727.724-1.149.725-.42 2.143-.42 1.449 0 2.143.476.695.449.927 1.486h3.33q0-1.402-.723-2.467-.696-1.094-2.115-1.682-1.419-.615-3.562-.616-1.418 0-2.664.28-1.216.28-2.143.813a4.3 4.3 0 0 0-1.42 1.317q-.491.786-.492 1.794 0 1.037.493 1.766.52.701 1.39 1.177.87.449 1.998.73a29 29 0 0 0 2.346.476q1.216.168 1.998.364t1.158.532q.377.309.377.897 0 .477-.232.87-.231.364-.84.56-.608.195-1.708.196-1.622 0-2.636-.588-.984-.618-1.303-1.57"/><path fill-rule="evenodd" d="M7.704 19.845q-2.145 0-3.91-.897a7.34 7.34 0 0 1-2.78-2.55Q0 14.743 0 12.585q0-2.214 1.043-3.84a7.07 7.07 0 0 1 2.809-2.522q1.795-.925 4.054-.925 2.49 0 3.997.98A5.5 5.5 0 0 1 14.2 9.05l.04.106.053.143a9 9 0 0 1 .158.488v-4.18h3.765v13.93h-3.504l-.087-.533a42 42 0 0 1-.116-1.401 24 24 0 0 1-.058-1.654v-.935l-.029.094a7.7 7.7 0 0 1-1.245 2.355q-.84 1.065-2.201 1.737-1.361.645-3.273.645Zm.567-2.803q1.71 0 2.954-.56t1.912-1.57q.666-1.009.666-2.327 0-1.09-.405-1.922a2.28 2.28 0 0 1-2.053 1.259c-1.253 0-2.269-.983-2.269-2.196 0-.577.23-1.102.606-1.494a9 9 0 0 0-1.41-.103q-2.404 0-3.737 1.233-1.331 1.206-1.332 3.223 0 1.346.638 2.355.636.981 1.766 1.542 1.158.56 2.664.56m24.068 2.803q-2.145 0-3.91-.897a7.34 7.34 0 0 1-2.78-2.55q-1.014-1.655-1.014-3.813 0-2.214 1.043-3.84a7.07 7.07 0 0 1 2.809-2.522q1.795-.925 4.054-.925 2.49 0 3.997.98a5.5 5.5 0 0 1 2.23 2.608q.183.436.319.9v-4.18h3.764v13.93h-3.504l-.087-.532a44 44 0 0 1-.149-1.98q-.024-.543-.024-1.075v-.935l-.03.094a7.7 7.7 0 0 1-1.245 2.355q-.84 1.065-2.201 1.737-1.36.645-3.272.645m.567-2.803q1.71 0 2.955-.56t1.91-1.57q.667-1.009.667-2.327 0-1.09-.405-1.922a2.28 2.28 0 0 1-2.053 1.259c-1.253 0-2.269-.983-2.269-2.196 0-.577.23-1.102.606-1.494a9 9 0 0 0-1.41-.103q-2.404 0-3.736 1.233-1.332 1.206-1.332 3.223 0 1.346.637 2.355.636.981 1.766 1.542 1.158.56 2.664.56m48.703 2.803q-2.145 0-3.91-.897a7.34 7.34 0 0 1-2.78-2.55q-1.014-1.655-1.014-3.813 0-2.214 1.043-3.84a7.07 7.07 0 0 1 2.809-2.522q1.795-.925 4.054-.925 2.491 0 3.997.98a5.5 5.5 0 0 1 2.23 2.608q.183.436.319.9v-4.18h3.764v13.93h-3.504l-.087-.532a52 52 0 0 1-.116-1.402 24 24 0 0 1-.057-1.653v-.935l-.03.094a7.7 7.7 0 0 1-1.245 2.355q-.84 1.065-2.201 1.737-1.36.645-3.272.645m.568-2.803q1.708 0 2.954-.56 1.245-.56 1.91-1.57.667-1.009.667-2.327 0-1.43-.695-2.41-.666-1.009-1.911-1.514-1.216-.532-2.925-.532-2.404 0-3.737 1.233-1.33 1.206-1.331 3.223 0 1.346.637 2.355.636.981 1.766 1.542 1.158.56 2.665.56" clip-rule="evenodd"/><path d="M34.438 22.56c-2.901 2.388-6.434 4.112-10.294 4.998s-7.908.903-11.777.047l-.867 3.67a30.9 30.9 0 0 0 13.542-.054c4.44-1.02 8.533-3.009 11.916-5.792l-2.52-2.868Z"/></g><defs><clipPath id="a"><path fill="#fff" d="M0 0h92.444v32H0z"/></clipPath></defs></svg>