<svg xmlns="http://www.w3.org/2000/svg" width="108" height="26" fill="none"><g fill="#191919" clip-path="url(#a)"><path d="M54.777 4.045a31.8 31.8 0 0 0-5.442 4.028 142 142 0 0 0-4.98 4.67 91 91 0 0 0-2.72 2.744L38.97 18.29a29 29 0 0 1-1.506 1.635 31 31 0 0 0-1.505 1.635q1.215-.292 2.374-.7 1.215-.41 2.2-.701a22 22 0 0 0 1.853-.468q.984-.291 1.968-.466a8.5 8.5 0 0 1 1.969-.234q1.042-.059 1.91.292 1.101.409 1.332 1.401.174.642-.116 1.226a28 28 0 0 0 1.911-.642 102 102 0 0 1 1.853-.642l3.358-1.051q1.68-.584 3.416-.934a4.6 4.6 0 0 1 1.1-.117q.695-.059 1.216.117.52.174.753.642.29.408.057 1.226-.173.525-.694.876-.522.291-1.216.467-.694.175-1.39.291-.695.06-1.1.176-1.968.583-3.88 1.226l-3.82 1.167a54 54 0 0 1-2.143.584q-1.158.35-2.2.117-.406-.06-.868-.35-.984-.76-.927-1.402.059-.642.521-1.284h-.694q-2.085.35-4.169.876-1.68.467-3.416 1.05a15 15 0 0 1-3.474.76 2.5 2.5 0 0 1-1.274-.234q-.636-.234-.926-.992-.231-.643 0-1.226.23-.643.637-1.226a37 37 0 0 1-3.185 1.692 55 55 0 0 1-2.2.935 178 178 0 0 1-3.242 1.342q-1.737.7-3.474.642-1.911-.116-2.316-1.05t.174-2.335q.52-1.46 1.679-3.095a41 41 0 0 1 2.431-3.21 59 59 0 0 1 2.432-2.628q1.1-1.167 1.448-1.517l.81-.818h-3.3q-1.62 0-3.3.059-3.358.117-6.659.35a131 131 0 0 0-6.716.525q-1.215.176-2.374.35-1.215.118-2.431.41a5 5 0 0 0-.637.174.9.9 0 0 1-.637 0q-.637-.233-.58-.817 0-.642.58-.817a75.6 75.6 0 0 1 14.3-2.277 265 265 0 0 1 14.534-.642 191 191 0 0 1 3.01-2.744 219 219 0 0 1 3.069-2.685 37 37 0 0 0 1.737-1.752q1.042-1.11 2.084-1.4.579-.176.984.057.464.175.695.643.232.408.174.934-.058.525-.463.934a286 286 0 0 0-3.532 3.035 83 83 0 0 0-3.416 3.036q.869 0 1.621.234.694.174 1.216.584.579.407.81 1.226.174.7-.173 1.226a2.2 2.2 0 0 1-.869.7 2.1 2.1 0 0 1-1.1.058q-.52-.175-.81-.758a7 7 0 0 0-1.737-.41 10.6 10.6 0 0 0-1.853-.174l-.579.525a502 502 0 0 0-5.037 4.904q-2.605 2.627-4.111 5.663a31 31 0 0 0 4.169-1.168 56 56 0 0 0 4.226-1.693 80 80 0 0 0 4.111-1.985 48 48 0 0 0 3.763-2.277 160 160 0 0 1 4.459-4.436q2.316-2.22 4.69-4.262a92 92 0 0 1 2.952-2.51 42 42 0 0 1 3.069-2.277 3.14 3.14 0 0 1 1.39-.584q.81-.175 1.331.642.29.526.116 1.168-.116.583-.637.934Z"/><path d="M88.643 21.617a16 16 0 0 0-2.664.467q-1.273.293-2.605.584-3.474.817-6.89 1.576a68 68 0 0 1-6.948 1.051q-.927.117-1.969.175-.984.06-2.026-.058a8 8 0 0 1-1.91-.467 4.8 4.8 0 0 1-1.68-.934 3.7 3.7 0 0 1-.984-1.226 3.4 3.4 0 0 1-.463-1.46 3.1 3.1 0 0 1 .116-1.46q.232-.758.868-1.342.405-.408 1.274-.642a10.4 10.4 0 0 1 2.026-.409 14 14 0 0 1 2.2-.058q1.1.058 1.911.409.81.35 1.1.992.348.584-.057 1.518-.348.7-1.043.992a6.2 6.2 0 0 1-1.563.41q-.87.057-1.795 0a40 40 0 0 1-1.621-.235q.231.234.926.41.695.116 1.448.174.81.06 1.447.059h.869a45 45 0 0 0 5.616-.818q2.837-.583 5.616-1.226a518 518 0 0 0 3.995-.934q2.026-.525 4.053-.759.868-.058 1.448.41.578.465.752 1.108.174.585-.174 1.11-.29.525-1.273.583"/><path d="M106.118 21.617q-2.953.058-6.022.175a22.4 22.4 0 0 1-6.021-.7 1 1 0 0 1-.463-.117 7.2 7.2 0 0 1-1.043 1.926 7.7 7.7 0 0 1-1.447 1.518q-.81.643-1.795.934a3.34 3.34 0 0 1-1.853.059q-.869-.234-1.274-.876a2.8 2.8 0 0 1-.52-1.46 4 4 0 0 1 .23-1.634 4.6 4.6 0 0 1 .696-1.46 4.63 4.63 0 0 1 1.91-1.4 3.4 3.4 0 0 1 2.316-.117q.116-.817.927-1.285.81-.466 1.737.117a8 8 0 0 0 1.852.817q1.043.234 2.143.292a41 41 0 0 0 2.142.059 39 39 0 0 1 2.084-.059q1.158 0 2.49-.116 1.331-.176 2.432.175.636.233.868.759.29.525.174 1.05-.058.525-.463.934t-1.1.41Zm-17.312.759q.173-.175.695-.175v-.526a3.4 3.4 0 0 1-.348.292.74.74 0 0 0-.347.409"/></g><defs><clipPath id="a"><path fill="#fff" d="M0 0h107.756v26H0z"/></clipPath></defs></svg>