<svg xmlns="http://www.w3.org/2000/svg" width="90" height="20" fill="none"><path fill="#191919" d="M30.555 18.88q-3.1.001-4.835-1.714-1.714-1.714-1.714-4.896v-8.1h3.347v7.976q0 3.884 3.223 3.884 1.57 0 2.396-.93.825-.95.826-2.954V4.17h3.306v8.099q0 3.18-1.735 4.896-1.715 1.715-4.814 1.715m8.183-7.354h5.847v2.582h-5.847zm9.826-4.628h-4.628V4.171h12.603v2.727H51.91v11.735h-3.347V6.898Zm19.471.62v11.115h-3.057v-1.322a4.4 4.4 0 0 1-1.53 1.115 4.9 4.9 0 0 1-1.92.372q-2.19 0-3.472-1.26-1.28-1.26-1.28-3.74v-6.28h3.222v5.805q0 2.685 2.252 2.686 1.157 0 1.86-.744.702-.764.702-2.252V7.518zm5.031 1.467a3.6 3.6 0 0 1 1.55-1.219q.99-.413 2.272-.413v2.975a12 12 0 0 0-.723-.041q-1.384 0-2.17.785-.784.764-.784 2.314v5.247h-3.223V7.518h3.078zm11.461-1.632q2.066 0 3.327 1.24 1.28 1.24 1.28 3.677v6.363h-3.222v-5.867q0-1.323-.579-1.963-.578-.66-1.673-.661-1.22 0-1.942.764-.724.744-.724 2.232v5.495h-3.222V7.518h3.078V8.82a4.2 4.2 0 0 1 1.59-1.075 5.4 5.4 0 0 1 2.087-.392"/><path fill="#191919" fill-rule="evenodd" d="M9.607.412c.55-.55 1.441-.55 1.99 0l5.147 5.147-5.17 4.936a1.407 1.407 0 1 1-1.943-2.037l1.587-1.515h-3.43a4.973 4.973 0 0 0 0 9.946h6.943a1.408 1.408 0 1 1 0 2.815H7.788a7.788 7.788 0 1 1 0-15.576h3.545L9.607 2.403a1.406 1.406 0 0 1 0-1.99Z" clip-rule="evenodd"/></svg>