<svg xmlns="http://www.w3.org/2000/svg" width="99" height="32" fill="none"><g fill="#191919" clip-path="url(#a)"><path d="M37.519 23.195h-8.493V8.06h8.041q1.74 0 2.869.406 1.152.384 1.716 1.22.565.813.565 2.1 0 1.424-.768 2.26t-2.326.97v.294q1.92.069 2.846 1.107.948 1.04.948 2.575 0 1.31-.587 2.26-.564.947-1.762 1.445-1.197.497-3.05.497Zm-4.247-6.077v2.26h4.089q.61 0 .926-.181.316-.18.316-.927 0-.768-.294-.948-.292-.204-.948-.204zm0-5.24v1.942h3.569q.655 0 .881-.203.249-.202.249-.768 0-.61-.294-.79-.271-.18-.926-.181zm16.046 11.543q-1.875 0-3.208-.7a4.93 4.93 0 0 1-2.01-2.034q-.678-1.332-.678-3.185 0-1.92.7-3.297a4.78 4.78 0 0 1 2.056-2.101q1.355-.746 3.275-.746 1.875 0 3.117.678 1.264.678 1.875 1.875.633 1.175.633 2.733 0 .474-.068.949-.068.474-.113.768h-9.668v-2.304h5.986l-.18.113a1.4 1.4 0 0 0-.136-.723q-.135-.34-.542-.542-.384-.204-1.13-.204-1.038 0-1.445.384-.407.362-.407 1.175v1.604q0 .835.136 1.287a.88.88 0 0 0 .564.588q.43.158 1.31.158.768 0 1.062-.158.294-.18.294-.565v-.045h4.201v.27q0 1.176-.7 2.079-.678.903-1.943 1.423-1.242.52-2.981.52m10.929-.226h-4.224v-11.61h3.953v3.297l.27.113zm0-7.341h-.858v-2.508h.79a4.4 4.4 0 0 1 1.31-1.423q.836-.565 1.988-.565 1.13 0 1.785.452.654.451.948 1.288.294.836.294 1.987v2.101h-4.247v-1.152q0-.655-.18-.88-.18-.227-.768-.227-.52 0-.79.159-.272.135-.272.768m11.228 7.34h-4.224V8.062h4.224v15.134Zm5.58-12.649h-4.223V8.061h4.224zm.023 12.65h-4.246v-11.61h4.247zm13.442 0h-4.247v-6.55q0-.927-.339-1.288-.316-.362-1.446-.362-.7 0-1.106.136a1 1 0 0 0-.565.474q-.158.34-.158.971h-.678v-3.23h.61q.316-.655.88-1.084a3.9 3.9 0 0 1 1.311-.678 5.5 5.5 0 0 1 1.604-.226q1.513 0 2.417.61a3.35 3.35 0 0 1 1.31 1.604q.406.994.407 2.191zm-7.861 0h-4.224v-11.61h3.953v3.184l.27.113v8.313Zm14.181 0h-5.06v-4.676h5.06zM20.706 4.706H1.882C.842 4.706 0 5.55 0 6.588v18.824c0 1.04.843 1.882 1.882 1.882h18.824c1.04 0 1.882-.843 1.882-1.882V6.588c0-1.04-.843-1.882-1.882-1.882m-2.824-1.883H4.706a.94.94 0 0 1-.941-.94V.94a.94.94 0 0 1 .94-.941h13.177a.94.94 0 0 1 .941.94v.942a.94.94 0 0 1-.94.941Zm0 29.177H4.706a.94.94 0 0 1-.941-.941v-.941a.94.94 0 0 1 .94-.941h13.177c.52 0 .941.42.941.94v.942a.94.94 0 0 1-.94.941Z"/><path fill-rule="evenodd" d="M18.88 13.234a.94.94 0 0 1 0 1.331l-7.391 7.392a.94.94 0 0 1-1.331 0l-5.51-5.51a.94.94 0 0 1 0-1.33l1.997-1.997a.94.94 0 0 1 1.331 0l2.847 2.847 4.73-4.73a.94.94 0 0 1 1.33 0z" clip-rule="evenodd"/></g><defs><clipPath id="a"><path fill="#fff" d="M0 0h98.133v32H0z"/></clipPath></defs></svg>