<svg xmlns="http://www.w3.org/2000/svg" width="1815" height="238" fill="none"><g opacity=".2"><path fill="#F6F6F6" d="M184.78 4.777h89.246v227.692h-58.754V54.057L164.957 232.47h-58.913L56.047 54.057V232.47H0V4.777h92.669l45.936 164.161zm159.424 227.692h-61.381L358.137 4.777h80.727l74.199 227.692h-62.656l-12.738-46.574h-80.488zm25.874-93.067h54.933l-27.227-99.595zM733.524 4.777v227.692h-79.93L577.882 61.541v170.928h-56.047V4.777h84.708l70.934 158.907V4.777zm17.819 136.933V4.777h58.754v131.679c0 36.144 14.648 51.589 41.717 51.589 27.148 0 41.717-15.445 41.717-51.589V4.777h58.754V141.71c0 61.382-41.558 95.536-100.471 95.536-58.834 0-100.471-34.154-100.471-95.536M1129.35 4.777V53.5h-100.32v45.777h91.24v46.812h-91.24v86.38h-58.753V4.777zm47.37 227.692h-61.38l75.31-227.692h80.73l74.2 227.692h-62.66l-12.74-46.574h-80.49zm25.87-93.067h54.93l-27.22-99.595zm193.36-20.779c0 45.538 18.79 69.422 53.03 69.422 27.06 0 43.22-16.082 48.4-48.723h58.28c-8.12 60.824-48.41 97.924-106.76 97.924-65.37 0-112.18-46.653-112.18-118.623S1383.53 0 1448.9 0c58.35 0 98.64 37.1 106.76 97.924h-58.28c-5.18-32.642-21.34-48.723-48.4-48.723-34.24 0-53.03 23.804-53.03 69.422M1752.73 4.777V53.5h-67.35v178.969h-58.75V53.499h-67.35V4.778z"/><path stroke="#F6F6F6" stroke-width="4.227" d="M1787.38 54.564c13.62 0 24.66-11.04 24.66-24.657S1801 5.25 1787.38 5.25c-13.61 0-24.65 11.04-24.65 24.657s11.04 24.657 24.65 24.657Z"/><path fill="#F6F6F6" d="M1783.4 43.462h-5.84V17.007h13.08c5.94 0 9.55 3.117 9.55 7.999 0 4.272-2.87 7.073-7.33 7.212 2.09.148 3.71 1.572 4.86 4.16l3.19 7.084h-6.49l-3.2-7.065c-.95-2.09-1.8-2.662-3.98-2.662h-3.84zm0-14.443h6.57c2.76 0 4.38-1.341 4.38-3.653 0-2.274-1.57-3.532-4.39-3.532h-6.56z"/></g></svg>