<svg xmlns="http://www.w3.org/2000/svg" width="20" height="20" fill="none"><path fill="#fff" d="M2.033 16.2A1.25 1.25 0 1 0 3.8 17.968l-.883-.884zM17.967 3.8A1.25 1.25 0 0 0 16.2 2.034l.884.884.884.884ZM2.917 17.085l.883.884 6.25-6.25-.884-.884-.883-.884-6.25 6.25zm7.916-7.917.884.884 6.25-6.25-.884-.884-.884-.884-6.25 6.25z"/><path fill="#fff" d="M5.062 1.875H4.03c-1.078 0-1.616 0-1.842.284a.75.75 0 0 0-.144.301c-.08.354.258.773.934 1.612l10.915 13.55c.177.22.265.329.382.398a1 1 0 0 0 .12.058c.127.047.268.047.55.047h1.027c1.077 0 1.615 0 1.84-.284a.75.75 0 0 0 .145-.301c.08-.353-.259-.773-.934-1.612L6.113 2.378c-.176-.22-.264-.329-.38-.398a1 1 0 0 0-.121-.058c-.127-.047-.268-.047-.55-.047"/></svg>