<svg xmlns="http://www.w3.org/2000/svg" width="18" height="21" fill="none"><path fill="url(#a)" d="M8.865 9.725a1.66 1.66 0 1 0 0-3.32 1.66 1.66 0 0 0 0 3.32"/><path fill="#fff" d="M5.222 18.996h7.651v1.821H5.222zM12.873 4.87 9.048.817 5.222 4.87v13.397h7.651zm-4.008 5.583a2.39 2.39 0 0 1-2.388-2.388 2.39 2.39 0 0 1 2.388-2.389 2.39 2.39 0 0 1 2.39 2.389 2.39 2.39 0 0 1-2.39 2.389Zm4.373 9.271h4.372V15.74l-4.372-2.685v6.67Zm-8.745-6.669L.121 15.74v3.984h4.372z"/><defs><linearGradient id="a" x1="7.351" x2="10.383" y1="6.446" y2="9.59" gradientUnits="userSpaceOnUse"><stop stop-color="#F66234"/><stop offset="1" stop-color="#C8370B"/></linearGradient></defs></svg>