<svg xmlns="http://www.w3.org/2000/svg" width="20" height="20" fill="none"><path fill="#E5E5E5" fill-rule="evenodd" d="M5.095 17.687c1.016.44 2.312.44 4.905.44s3.889 0 4.905-.44a5.34 5.34 0 0 0 2.78-2.78c.44-1.016.44-2.312.44-4.905s0-3.889-.44-4.905a5.34 5.34 0 0 0-2.78-2.78c-1.016-.44-2.312-.44-4.905-.44s-3.889 0-4.905.44a5.34 5.34 0 0 0-2.78 2.78c-.44 1.016-.44 2.312-.44 4.905s0 3.889.44 4.905a5.34 5.34 0 0 0 2.78 2.78m8.237-7.685a3.333 3.333 0 1 1-6.667 0 3.333 3.333 0 0 1 6.667 0m1.25-3.75a.833.833 0 1 0 0-1.666.833.833 0 0 0 0 1.667Z" clip-rule="evenodd"/></svg>