<svg xmlns="http://www.w3.org/2000/svg" width="20" height="20" fill="none"><path fill="#E5E5E5" d="M14.165 3.171v.614c0 .69-.56 1.25-1.25 1.25s-1.25.56-1.25 1.25v1.91h.92c.214 0 .32 0 .41.011a1.35 1.35 0 0 1 1.158 1.158c.012.09.012.197.012.41 0 .214 0 .32-.012.41a1.35 1.35 0 0 1-1.158 1.158c-.09.012-.196.012-.41.012h-.92v5.104c0 .295 0 .442-.022.564a1.35 1.35 0 0 1-1.08 1.08c-.123.023-.27.023-.564.023-.295 0-.442 0-.564-.023a1.35 1.35 0 0 1-1.08-1.08c-.023-.122-.023-.27-.023-.564v-5.104h-.92c-.214 0-.32 0-.41-.012a1.35 1.35 0 0 1-1.158-1.158c-.012-.09-.012-.196-.012-.41s0-.32.012-.41a1.35 1.35 0 0 1 1.158-1.158c.09-.012.196-.012.41-.012h.92V6.412a4.537 4.537 0 0 1 4.537-4.537c.716 0 1.296.58 1.296 1.296"/></svg>