<svg xmlns="http://www.w3.org/2000/svg" width="108" height="28" fill="none"><path fill="#fff" d="M42.261 22.77q-2.571 0-4.337-.727-1.74-.727-2.622-2.052-.883-1.35-.883-3.168v-.156h2.804v.416q0 1.038.468 1.74.466.675 1.558 1.039 1.09.337 3.012.337 1.662 0 2.649-.234.986-.259 1.403-.779.441-.544.441-1.35 0-1.143-.727-1.662-.728-.519-2.363-.831l-4.26-.701a11 11 0 0 1-2.596-.831q-1.144-.571-1.792-1.506-.623-.96-.623-2.39 0-.934.415-1.843.416-.91 1.298-1.636.884-.728 2.286-1.143 1.428-.441 3.48-.441 2.544 0 4.18.779 1.637.779 2.416 2.13.804 1.323.805 3.038v.155h-2.779v-.337q0-1.065-.467-1.766-.468-.727-1.532-1.065-1.065-.364-2.883-.364-1.584 0-2.57.26-.962.26-1.403.78-.442.492-.442 1.298 0 .728.312 1.194.312.468.96.753.65.26 1.663.494l4.233.727q1.74.312 2.882.935 1.17.623 1.74 1.584.571.96.572 2.233 0 1.325-.754 2.493-.753 1.17-2.363 1.896-1.61.7-4.18.701Zm15.47-.26h-3.48L50.38 9.604h2.908l2.156 7.323.597 3.324h.208l.96-3.584 2.701-7.063h3.584l2.727 7.063.96 3.584h.209l.597-3.324 2.155-7.323H73L69.079 22.51h-3.48l-2.83-7.427-.988-3.168h-.207l-.987 3.168-2.857 7.427Zm19.498 0h-2.805V9.604h2.805zm0-14.412h-2.805V5.11h2.805zm8.7 14.672q-3.117 0-4.83-1.194-1.689-1.196-1.688-3.428v-.078h2.804v.207q0 1.274.831 1.766.857.468 2.883.468 1.896 0 2.57-.39.702-.415.702-1.272 0-.805-.545-1.143-.52-.337-1.922-.52l-3.532-.467q-1.844-.233-2.882-1.038-1.04-.832-1.04-2.467 0-1.143.676-2 .675-.884 2.026-1.376 1.35-.495 3.324-.494 1.973 0 3.376.52 1.429.519 2.181 1.558.78 1.039.78 2.57v.078h-2.78v-.155q0-.753-.311-1.273-.312-.52-1.117-.779-.78-.285-2.207-.285-1.792 0-2.493.415-.702.415-.701 1.324 0 .753.52 1.091.518.338 1.947.546l2.986.415q2.286.285 3.376 1.117 1.09.83 1.09 2.44a3.1 3.1 0 0 1-.752 2.078q-.753.858-2.104 1.325-1.35.441-3.168.441m14.151 0q-3.116 0-4.83-1.194-1.688-1.196-1.688-3.428v-.078h2.805v.207q0 1.274.83 1.766.858.468 2.883.468 1.896 0 2.571-.39.7-.415.701-1.272 0-.805-.545-1.143-.52-.337-1.922-.52l-3.532-.467q-1.844-.233-2.882-1.038-1.04-.832-1.039-2.467 0-1.143.675-2 .675-.884 2.026-1.376 1.35-.495 3.324-.494 1.973 0 3.376.52 1.428.519 2.181 1.558.779 1.039.779 2.57v.078h-2.778v-.155q0-.753-.312-1.273t-1.117-.779q-.779-.285-2.207-.285-1.792 0-2.493.415-.702.415-.701 1.324 0 .753.52 1.091.518.338 1.947.546l2.986.415q2.286.285 3.376 1.117 1.09.83 1.091 2.44a3.1 3.1 0 0 1-.753 2.078q-.753.858-2.104 1.325-1.35.441-3.168.441M16.81.001H11v11l5.809-5.5z"/><path fill="#fff" d="M0 16.81V11h11.001l-5.5 5.809zm27.81-5.808v5.809h-11l5.5-5.809z"/><path fill="#fff" d="M16.833 10.979h-5.855V27.81h5.855V10.98Z"/></svg>