<svg xmlns="http://www.w3.org/2000/svg" width="182" height="23" fill="none"><path fill="#fff" d="M17.407.45h8.408V21.9H20.28V5.093L15.54 21.9H9.99L5.28 5.093V21.9H0V.45h8.73l4.327 15.465zm15.02 21.45h-5.783L33.739.45h7.605l6.99 21.45H42.43l-1.2-4.387h-7.58zm2.437-8.767h5.175L37.474 3.75zM69.103.45V21.9h-7.53L54.44 5.798V21.9h-5.28V.45h7.98l6.683 14.97V.45zm1.678 12.9V.45h5.535v12.405c0 3.405 1.38 4.86 3.93 4.86 2.558 0 3.93-1.455 3.93-4.86V.45h5.535v12.9c0 5.783-3.915 9-9.465 9-5.542 0-9.465-3.218-9.465-9m35.61-12.9v4.59h-9.45v4.312h8.595v4.41h-8.595V21.9h-5.535V.45zm4.463 21.45h-5.783L112.166.45h7.605l6.99 21.45h-5.902l-1.2-4.387h-7.583zm2.437-8.767h5.175l-2.565-9.383zm18.216-1.958c0 4.29 1.77 6.54 4.995 6.54 2.55 0 4.073-1.515 4.56-4.59h5.49c-.765 5.73-4.56 9.225-10.057 9.225-6.158 0-10.568-4.395-10.568-11.175S130.337 0 136.495 0c5.497 0 9.292 3.495 10.057 9.225h-5.49c-.487-3.075-2.01-4.59-4.56-4.59-3.225 0-4.995 2.243-4.995 6.54M165.118.45v4.59h-6.345V21.9h-5.535V5.04h-6.345V.45z"/><path stroke="#fff" stroke-width="1.5" d="M175.118 13.014a6 6 0 1 0 0-12 6 6 0 0 0 0 12Z"/><path fill="#fff" d="M174.151 10.113h-1.422V3.675h3.184c1.444 0 2.324.759 2.324 1.947 0 1.039-.7 1.72-1.784 1.755.508.036.902.382 1.183 1.012l.774 1.724h-1.577l-.781-1.72c-.229-.508-.437-.647-.967-.647h-.934zm0-3.515h1.597c.673 0 1.067-.326 1.067-.889 0-.553-.383-.86-1.069-.86h-1.595z"/></svg>