<svg xmlns="http://www.w3.org/2000/svg" width="121" height="19" fill="none"><path fill="url(#a)" d="m18.875 7.185-6.794-.447L9.522.31 6.963 6.738l-6.787.447 5.206 4.42-1.708 6.705 5.848-3.697 5.848 3.697-1.708-6.705z"/><path fill="url(#b)" d="m44.324 7.185-6.794-.447L34.97.31l-2.559 6.428-6.787.447 5.206 4.42-1.708 6.705 5.848-3.697 5.848 3.697-1.708-6.705z"/><path fill="url(#c)" d="m69.773 7.185-6.794-.447L60.42.31l-2.559 6.428-6.786.447 5.205 4.42-1.708 6.705 5.848-3.697 5.849 3.697-1.709-6.705z"/><path fill="url(#d)" d="m95.222 7.185-6.794-.447L85.868.31 83.31 6.738l-6.787.447 5.206 4.42-1.708 6.705 5.848-3.697 5.848 3.697-1.708-6.705z"/><path fill="url(#e)" d="m120.671 7.185-6.794-.447L111.318.31l-2.559 6.428-6.787.447 5.206 4.42-1.708 6.705 5.848-3.697 5.848 3.697-1.708-6.705z"/><defs><linearGradient id="a" x1=".994" x2="17.403" y1=".535" y2="18.202" gradientUnits="userSpaceOnUse"><stop stop-color="#F66234"/><stop offset="1" stop-color="#C8370B"/></linearGradient><linearGradient id="b" x1="26.443" x2="42.852" y1=".535" y2="18.202" gradientUnits="userSpaceOnUse"><stop stop-color="#F66234"/><stop offset="1" stop-color="#C8370B"/></linearGradient><linearGradient id="c" x1="51.892" x2="68.301" y1=".535" y2="18.202" gradientUnits="userSpaceOnUse"><stop stop-color="#F66234"/><stop offset="1" stop-color="#C8370B"/></linearGradient><linearGradient id="d" x1="77.341" x2="93.75" y1=".535" y2="18.202" gradientUnits="userSpaceOnUse"><stop stop-color="#F66234"/><stop offset="1" stop-color="#C8370B"/></linearGradient><linearGradient id="e" x1="102.79" x2="119.199" y1=".535" y2="18.202" gradientUnits="userSpaceOnUse"><stop stop-color="#F66234"/><stop offset="1" stop-color="#C8370B"/></linearGradient></defs></svg>