<svg xmlns="http://www.w3.org/2000/svg" width="38" height="41" fill="none"><path fill="#191919" fill-rule="evenodd" d="m9.262 26.668-.504 1.88a.825.825 0 0 1-1.007.581.825.825 0 0 1-.581-1.007l.717-2.673a.825.825 0 0 1 1.007-.582l10.508 2.816 10.51-2.816a.824.824 0 0 1 1.006.582l.717 2.673a.824.824 0 0 1-.582 1.007.824.824 0 0 1-1.007-.581l-.503-1.88-9.92 2.658a.84.84 0 0 1-.435.002z" clip-rule="evenodd"/><path fill="url(#a)" fill-rule="evenodd" d="M27.105 4.796A1.967 1.967 0 0 0 25.14 6.76c0 1.083.882 1.965 1.965 1.965A1.967 1.967 0 0 0 29.07 6.76a1.967 1.967 0 0 0-1.965-1.965Z" clip-rule="evenodd"/><path fill="#191919" fill-rule="evenodd" d="M11.7 3.836a2.93 2.93 0 0 1 2.924 2.925A2.93 2.93 0 0 1 11.7 9.686a2.93 2.93 0 0 1-2.925-2.925A2.93 2.93 0 0 1 11.7 3.836M5.395.32V13.2h28.014V.321H5.396Zm11.081 6.44a2.93 2.93 0 0 1 2.925-2.925 2.93 2.93 0 0 1 2.925 2.925 2.93 2.93 0 0 1-2.925 2.925 2.93 2.93 0 0 1-2.925-2.925m7.703 0a2.93 2.93 0 0 1 2.925-2.925A2.93 2.93 0 0 1 30.03 6.76a2.93 2.93 0 0 1-2.925 2.925A2.93 2.93 0 0 1 24.18 6.76Z" clip-rule="evenodd"/><path fill="url(#b)" fill-rule="evenodd" d="M11.7 4.796A1.97 1.97 0 0 0 9.733 6.76c0 1.083.882 1.965 1.965 1.965a1.97 1.97 0 0 0 1.966-1.965 1.967 1.967 0 0 0-1.966-1.965Z" clip-rule="evenodd"/><path fill="url(#c)" fill-rule="evenodd" d="M17.437 6.76c0 1.084.882 1.966 1.965 1.966a1.967 1.967 0 0 0 1.965-1.965 1.967 1.967 0 0 0-1.965-1.965 1.967 1.967 0 0 0-1.965 1.965Z" clip-rule="evenodd"/><path fill="#191919" fill-rule="evenodd" d="M23.444 14.161H15.36v1.781c0 .982.799 1.78 1.78 1.78h4.522c.982 0 1.78-.798 1.78-1.78v-1.78Zm-4.854 4.522v4.964a.813.813 0 0 0 1.624 0v-4.964zM31.129 36.36H2.785c-1.092 0-1.98.888-1.98 1.98v1.98H38v-1.98c0-1.092-.89-1.98-1.981-1.98zm3.221-5.383h-4.693l1.804 4.422h2.889zm-20.619-1.978v6.4h11.343V29l-5.167 1.384a1.94 1.94 0 0 1-1.003.002L13.731 29Zm-9.276 1.978v4.422h2.888l1.805-4.422z" clip-rule="evenodd"/><defs><linearGradient id="a" x1="25.312" x2="28.903" y1="4.845" y2="8.566" gradientUnits="userSpaceOnUse"><stop stop-color="#F66234"/><stop offset="1" stop-color="#C8370B"/></linearGradient><linearGradient id="b" x1="9.906" x2="13.497" y1="4.845" y2="8.566" gradientUnits="userSpaceOnUse"><stop stop-color="#F66234"/><stop offset="1" stop-color="#C8370B"/></linearGradient><linearGradient id="c" x1="17.609" x2="21.2" y1="4.845" y2="8.566" gradientUnits="userSpaceOnUse"><stop stop-color="#F66234"/><stop offset="1" stop-color="#C8370B"/></linearGradient></defs></svg>