<svg xmlns="http://www.w3.org/2000/svg" width="40" height="41" fill="none"><path fill="url(#a)" d="m17.73 20.18 2.033 2.034a.68.68 0 0 0 .959 0l2.034-2.034a.68.68 0 0 0 .198-.48v-9.21h-5.423v9.21c0 .18.071.353.198.48Z"/><path fill="#191919" d="m12.16 1.937 2.65 6.362c.211.506.705.835 1.252.835h8.7c.548 0 .702-.33.912-.835l2.651-6.362a.678.678 0 0 0-.626-.939H12.785a.678.678 0 0 0-.625.939M3.274 12.082l-1.438 1.439a.68.68 0 0 0 0 .959l17.208 17.208a1.695 1.695 0 0 0 2.397 0L38.65 14.48a.68.68 0 0 0 0-.96l-1.438-1.438a.68.68 0 0 0-.96 0l-15.53 15.531a.68.68 0 0 1-.959 0l-15.53-15.53a.68.68 0 0 0-.96 0Z"/><path fill="#191919" d="M39.226 24.727h-7.111a.68.68 0 0 0-.55.281L23.157 36.65a.68.68 0 0 1-.55.281h-4.73a.68.68 0 0 1-.55-.28L8.92 25.007a.68.68 0 0 0-.55-.28H1.26a.68.68 0 0 0-.678.677v14.237c0 .375.303.678.678.678h37.966a.68.68 0 0 0 .677-.678V25.405a.68.68 0 0 0-.677-.678"/><path fill="url(#b)" d="M8.717.32a.68.68 0 0 0-.678.678v8.4l-.774-1.29a.678.678 0 1 0-1.163.697l2.034 3.39q.012.017.027.034a.7.7 0 0 0 .143.15q.024.02.052.038.073.046.155.072l.024.01.006.002a.7.7 0 0 0 .164.022h.01l.019-.002a.7.7 0 0 0 .156-.02l.044-.018a.6.6 0 0 0 .121-.052l.009-.004q.009-.007.016-.015a.7.7 0 0 0 .158-.143l.035-.045q.012-.014.023-.03l2.034-3.39a.678.678 0 1 0-1.162-.697l-.775 1.291v-8.4A.68.68 0 0 0 8.717.32"/><path fill="url(#c)" d="M29.385 7.875a.68.68 0 0 0-.232.93l2.034 3.39.026.034a.7.7 0 0 0 .143.15l.052.038q.073.045.155.071c.009.003.015.01.024.012h.006q.082.021.165.023h.01l.019-.002a.7.7 0 0 0 .155-.02l.045-.018a1 1 0 0 0 .121-.052l.009-.004q.009-.007.016-.015a.7.7 0 0 0 .158-.143l.035-.045q.012-.014.023-.03l2.034-3.39a.678.678 0 1 0-1.162-.697l-.775 1.291v-8.4a.678.678 0 1 0-1.356 0v8.4l-.775-1.29a.68.68 0 0 0-.93-.233"/><defs><linearGradient id="a" x1="17.768" x2="26.176" y1="10.639" y2="14.603" gradientUnits="userSpaceOnUse"><stop stop-color="#F66234"/><stop offset="1" stop-color="#C8370B"/></linearGradient><linearGradient id="b" x1="6.24" x2="14.723" y1=".473" y2="4.384" gradientUnits="userSpaceOnUse"><stop stop-color="#F66234"/><stop offset="1" stop-color="#C8370B"/></linearGradient><linearGradient id="c" x1="29.293" x2="37.774" y1=".473" y2="4.382" gradientUnits="userSpaceOnUse"><stop stop-color="#F66234"/><stop offset="1" stop-color="#C8370B"/></linearGradient></defs></svg>