<svg xmlns="http://www.w3.org/2000/svg" width="41" height="41" fill="none"><path fill="#191919" d="m28.814 28.892-7.857 2.857v8.571l6.959-2.498c.542-.217.898-.742.898-1.326zm-17.144 0 7.858 2.857v8.571l-6.96-2.498a1.43 1.43 0 0 1-.897-1.326v-7.604Zm.715-1.429 7.857 2.857 7.857-2.857-7.326-2.753a1.4 1.4 0 0 0-1.061 0zM10.242 4.606H1.671A1.43 1.43 0 0 1 .242 3.177V.32h11.429v2.857c0 .79-.64 1.429-1.429 1.429m15.564 13.646-1.429-2.857a1.43 1.43 0 0 0-1.277-.79h-1.43v-3.12c-.448.16-.924.263-1.428.263s-.98-.103-1.428-.263v3.12h-1.429a1.43 1.43 0 0 0-1.278.79l-1.428 2.857a1.43 1.43 0 0 0 0 1.278l1.428 2.857a1.428 1.428 0 1 0 2.556-1.277l-1.109-2.219.714-1.428h3.948l.715 1.428-1.11 2.219a1.428 1.428 0 1 0 2.556 1.277l1.429-2.857c.2-.402.2-.875 0-1.278M20.242 3.177c1.102 0 2.098.43 2.857 1.115V.32h-5.714v3.972a4.25 4.25 0 0 1 2.857-1.115"/><path fill="url(#a)" d="M20.242 10.32a2.857 2.857 0 1 0 0-5.714 2.857 2.857 0 0 0 0 5.714"/><path fill="#191919" d="m12.681 23.596-2.868-2.869a4.3 4.3 0 0 1-2.02 2.02l2.868 2.869a1.424 1.424 0 0 0 2.02 0 1.43 1.43 0 0 0 0-2.02m-6.724-8.99c1.263 0 2.389.56 3.174 1.432l1.111-10.004H1.671l1.111 10.004a4.26 4.26 0 0 1 3.175-1.432"/><path fill="url(#b)" d="M5.957 21.749a2.857 2.857 0 1 0 0-5.715 2.857 2.857 0 0 0 0 5.715"/><path fill="#191919" d="M30.242 4.606h8.572c.789 0 1.428-.64 1.428-1.429V.32H28.814v2.857c0 .79.64 1.429 1.428 1.429m.43 16.121-2.868 2.869a1.428 1.428 0 1 0 2.02 2.02l2.868-2.868a4.3 4.3 0 0 1-2.02-2.02Zm3.856-6.121c1.264 0 2.39.56 3.174 1.432l1.112-10.004h-8.572l1.112 10.004a4.26 4.26 0 0 1 3.174-1.432"/><path fill="url(#c)" d="M34.528 21.749a2.857 2.857 0 1 0 0-5.715 2.857 2.857 0 0 0 0 5.715"/><defs><linearGradient id="a" x1="17.635" x2="22.855" y1="4.678" y2="10.088" gradientUnits="userSpaceOnUse"><stop stop-color="#F66234"/><stop offset="1" stop-color="#C8370B"/></linearGradient><linearGradient id="b" x1="3.35" x2="8.57" y1="16.106" y2="21.516" gradientUnits="userSpaceOnUse"><stop stop-color="#F66234"/><stop offset="1" stop-color="#C8370B"/></linearGradient><linearGradient id="c" x1="31.921" x2="37.141" y1="16.106" y2="21.516" gradientUnits="userSpaceOnUse"><stop stop-color="#F66234"/><stop offset="1" stop-color="#C8370B"/></linearGradient></defs></svg>