<svg xmlns="http://www.w3.org/2000/svg" width="39" height="41" fill="none"><path fill="url(#a)" d="M36.43 10.867H2.055a1.953 1.953 0 1 0 0 3.906H36.43a1.953 1.953 0 1 0 0-3.906"/><path fill="#191919" d="M4.79 26.883c.115 3.106 4.573 3.104 4.687 0v-4.688H4.789v4.688Zm24.218 0c.115 3.106 4.573 3.104 4.688 0v-4.688h-4.688zM16.899 39.148c0 .648.524 1.172 1.172 1.172h2.343c.647 0 1.172-.524 1.172-1.172v-6.796H16.9z"/><path fill="url(#b)" d="M14.164 28.836c0 .647.525 1.172 1.172 1.172h7.813c.647 0 1.172-.525 1.172-1.172v-1.953H14.164z"/><path fill="#191919" d="M2.446 18.68c0 .647.524 1.172 1.171 1.172h8.204v3.515c0 .647.524 1.172 1.171 1.172h12.5c.648 0 1.172-.525 1.172-1.172v-3.515h8.203c.648 0 1.172-.525 1.172-1.172v-1.563H2.446zm31.25-17.188c0-.647-.525-1.172-1.172-1.172H5.96c-.646 0-1.17.525-1.17 1.172v7.031h28.907v-7.03ZM10.649 5.594a1.17 1.17 0 0 1-1.172-1.172c.057-1.553 2.286-1.552 2.344 0 0 .647-.525 1.172-1.172 1.172m11.717 0h-6.25c-1.553-.058-1.552-2.287 0-2.344h6.25c1.553.058 1.552 2.287 0 2.344m5.47 0c-.33 0-.626-.137-.84-.355-.718-.721-.19-1.997.84-1.989 1.554.058 1.552 2.287 0 2.344"/><defs><linearGradient id="a" x1="1.776" x2="2.473" y1="10.916" y2="17.989" gradientUnits="userSpaceOnUse"><stop stop-color="#F66234"/><stop offset="1" stop-color="#C8370B"/></linearGradient><linearGradient id="b" x1="14.609" x2="16.167" y1="26.922" y2="32.172" gradientUnits="userSpaceOnUse"><stop stop-color="#F66234"/><stop offset="1" stop-color="#C8370B"/></linearGradient></defs></svg>