<svg xmlns="http://www.w3.org/2000/svg" width="61" height="51" fill="none"><path fill="#fff" d="M45.615 24.253A15.357 15.357 0 0 1 26.32 39.092l-6.214 3.588a1.83 1.83 0 0 1-2.683-2.059l1.588-5.924a15.4 15.4 0 0 1-4.1-10.444c0-8.467 6.887-15.356 15.352-15.356s15.352 6.889 15.352 15.356m-19.62 0a1.83 1.83 0 0 0-1.83-1.83h-.003a1.83 1.83 0 1 0 1.833 1.83m6.099 0a1.7 1.7 0 0 0-.037-.358 2 2 0 0 0-.104-.343 1.8 1.8 0 0 0-.397-.593 2 2 0 0 0-.277-.228 1.8 1.8 0 0 0-.485-.228 1.6 1.6 0 0 0-.351-.07 1.7 1.7 0 0 0-.711.07 1.6 1.6 0 0 0-.331.137 2 2 0 0 0-.298.197 1.84 1.84 0 0 0-.661 1.596 2 2 0 0 0 .07.352 2 2 0 0 0 .137.33 2 2 0 0 0 .32.433 1.8 1.8 0 0 0 .432.32 2 2 0 0 0 .505.18 1.84 1.84 0 0 0 1.97-.932 2 2 0 0 0 .137-.331 1.7 1.7 0 0 0 .08-.532Zm6.101 0a1.83 1.83 0 0 0-1.83-1.83h-.004a1.831 1.831 0 1 0 1.834 1.83"/><path fill="url(#a)" d="M60.498 28.091a8.718 8.718 0 0 1-10.553 8.886 23.48 23.48 0 0 1-15.872 10.4 5.075 5.075 0 1 1-.162-3.686 19.71 19.71 0 0 0 16.127-19.438c0-10.904-8.871-19.775-19.775-19.775s-19.775 8.871-19.775 19.775c0 3.372.861 6.688 2.504 9.632q.083.147.124.31A1.826 1.826 0 0 1 12.1 36.5a8.6 8.6 0 0 1-3.751.665 8.717 8.717 0 0 1-8.32-9.074 35 35 0 0 0-.004-2.533c-.02-.747-.04-1.52-.007-2.325a8.725 8.725 0 0 1 8.76-8.333C12.396 6.619 20.664.817 30.263.817S48.13 6.62 51.75 14.9a8.72 8.72 0 0 1 8.759 8.331c.034.808.014 1.58-.006 2.327-.021.793-.043 1.614-.004 2.534Z"/><defs><linearGradient id="a" x1="2.647" x2="47.201" y1="1.444" y2="57.342" gradientUnits="userSpaceOnUse"><stop stop-color="#F66234"/><stop offset="1" stop-color="#C8370B"/></linearGradient></defs></svg>